<svg version="1.1" id="Layer_1" xmlns="http://www.w3.org/2000/svg" xmlns:xlink="http://www.w3.org/1999/xlink" x="0px" y="0px"
	 width="100%" viewBox="0 0 4168 4168" enable-background="new 0 0 4168 4168" xml:space="preserve">
<path fill="#FFFFFF" opacity="1.000000" stroke="none" 
	d="
M4.000000,1592.000000 
	C4.000000,1061.396606 4.000000,532.793152 4.000000,4.094864 
	C1393.103882,4.094864 2782.207764,4.094864 4171.655762,4.094864 
	C4171.655762,1392.937622 4171.655762,2781.875244 4171.655762,4171.406250 
	C2782.666748,4171.406250 1393.333496,4171.406250 4.000000,4171.406250 
	C4.000000,3312.457031 4.000000,2453.228516 4.000000,1592.000000 
M1065.134644,575.253723 
	C1060.223633,578.703674 1055.335449,582.186646 1050.398193,585.598633 
	C976.789062,636.465881 907.620483,692.864075 842.333923,753.971008 
	C776.063599,815.998718 714.693481,882.623840 658.237427,953.730164 
	C519.184448,1128.867065 415.554504,1322.898438 348.136963,1536.154907 
	C315.942444,1637.992920 292.944672,1741.862061 279.217987,1847.852539 
	C272.624084,1898.767212 267.414764,1949.812134 265.321930,2001.020142 
	C261.236542,2100.981689 263.584106,2200.803955 275.401184,2300.339844 
	C283.577759,2369.211426 294.829987,2437.481201 310.461517,2505.026367 
	C345.793823,2657.700684 399.976654,2803.363037 473.071472,2942.010742 
	C554.121399,3095.747314 655.631714,3234.666992 776.063416,3359.762695 
	C845.988159,3432.395752 921.512512,3498.821045 1002.461731,3558.984131 
	C1201.344482,3706.798340 1421.206909,3809.904297 1662.112183,3868.004395 
	C1741.216309,3887.082031 1821.265991,3900.573242 1902.256958,3908.789307 
	C1964.614990,3915.115479 2027.100464,3918.520508 2089.733154,3918.867188 
	C2117.013428,3919.018311 2144.301514,3917.211182 2171.590332,3916.436035 
	C2274.467041,3913.513672 2376.108154,3900.022461 2476.609375,3878.602783 
	C2655.058594,3840.569336 2824.087646,3777.105469 2983.441895,3687.996094 
	C3149.994873,3594.861328 3298.123291,3478.176758 3428.538086,3339.107422 
	C3532.497803,3228.249512 3621.525391,3106.342285 3695.068115,2973.209717 
	C3746.742188,2879.665771 3789.875244,2782.367188 3824.283203,2681.213135 
	C3869.734131,2547.593262 3899.211182,2410.561523 3912.786865,2270.021240 
	C3918.365723,2212.264648 3920.751953,2154.414795 3921.675049,2096.468994 
	C3921.961426,2078.506836 3920.490967,2060.523193 3920.449219,2042.547974 
	C3920.343506,1997.186279 3916.743164,1952.065430 3912.500000,1906.940430 
	C3906.256104,1840.536621 3896.292236,1774.700317 3882.455811,1709.507080 
	C3831.885986,1471.236572 3737.784668,1251.581665 3599.100586,1051.241455 
	C3486.653320,888.802368 3351.394043,748.092590 3194.028320,628.701904 
	C3072.922119,536.820557 2942.261719,461.398956 2802.100830,402.449463 
	C2670.714844,347.190491 2534.663818,308.024048 2394.084229,284.877777 
	C2327.679688,273.944366 2260.797363,267.185516 2193.532227,263.199158 
	C2113.534424,258.458252 2033.683228,259.575653 1953.920410,265.384247 
	C1879.472412,270.805817 1805.598389,281.088409 1732.290283,295.621765 
	C1575.859863,326.634064 1426.266357,377.612000 1283.220703,447.891998 
	C1208.355347,484.674255 1136.633911,526.943237 1065.134644,575.253723 
z"/>
<path fill="#FB842D" opacity="1.000000" stroke="none" 
	d="
M1066.303467,574.408081 
	C1136.633911,526.943237 1208.355347,484.674255 1283.220703,447.891998 
	C1426.266357,377.612000 1575.859863,326.634064 1732.290283,295.621765 
	C1805.598389,281.088409 1879.472412,270.805817 1953.920410,265.384247 
	C2033.683228,259.575653 2113.534424,258.458252 2193.532227,263.199158 
	C2260.797363,267.185516 2327.679688,273.944366 2394.084229,284.877777 
	C2534.663818,308.024048 2670.714844,347.190491 2802.100830,402.449463 
	C2942.261719,461.398956 3072.922119,536.820557 3194.028320,628.701904 
	C3351.394043,748.092590 3486.653320,888.802368 3599.100586,1051.241455 
	C3737.784668,1251.581665 3831.885986,1471.236572 3882.455811,1709.507080 
	C3896.292236,1774.700317 3906.256104,1840.536621 3912.500000,1906.940430 
	C3916.743164,1952.065430 3920.343506,1997.186279 3920.449219,2042.547974 
	C3920.490967,2060.523193 3921.961426,2078.506836 3921.675049,2096.468994 
	C3920.751953,2154.414795 3918.365723,2212.264648 3912.786865,2270.021240 
	C3899.211182,2410.561523 3869.734131,2547.593262 3824.283203,2681.213135 
	C3789.875244,2782.367188 3746.742188,2879.665771 3695.068115,2973.209717 
	C3621.525391,3106.342285 3532.497803,3228.249512 3428.538086,3339.107422 
	C3298.123291,3478.176758 3149.994873,3594.861328 2983.441895,3687.996094 
	C2824.087646,3777.105469 2655.058594,3840.569336 2476.609375,3878.602783 
	C2376.108154,3900.022461 2274.467041,3913.513672 2171.590332,3916.436035 
	C2144.301514,3917.211182 2117.013428,3919.018311 2089.733154,3918.867188 
	C2027.100464,3918.520508 1964.614990,3915.115479 1902.256958,3908.789307 
	C1821.265991,3900.573242 1741.216309,3887.082031 1662.112183,3868.004395 
	C1421.206909,3809.904297 1201.344482,3706.798340 1002.461731,3558.984131 
	C921.512512,3498.821045 845.988159,3432.395752 776.063416,3359.762695 
	C655.631714,3234.666992 554.121399,3095.747314 473.071472,2942.010742 
	C399.976654,2803.363037 345.793823,2657.700684 310.461517,2505.026367 
	C294.829987,2437.481201 283.577759,2369.211426 275.401184,2300.339844 
	C263.584106,2200.803955 261.236542,2100.981689 265.321930,2001.020142 
	C267.414764,1949.812134 272.624084,1898.767212 279.217987,1847.852539 
	C292.944672,1741.862061 315.942444,1637.992920 348.136963,1536.154907 
	C415.554504,1322.898438 519.184448,1128.867065 658.237427,953.730164 
	C714.693481,882.623840 776.063599,815.998718 842.333923,753.971008 
	C907.620483,692.864075 976.789062,636.465881 1050.398193,585.598633 
	C1055.335449,582.186646 1060.223633,578.703674 1066.303467,574.408081 
M2783.946777,449.529205 
	C2741.586914,433.540070 2699.624512,416.384613 2656.792969,401.779022 
	C2525.064941,356.859924 2389.566162,329.014374 2251.013672,316.701233 
	C2182.007568,310.568665 2112.799072,308.363098 2043.427979,310.746002 
	C1999.453247,312.256531 1955.623901,314.752106 1911.845703,319.054413 
	C1830.823242,327.016815 1750.844971,340.933716 1671.762085,360.116791 
	C1498.257935,402.203552 1334.974121,469.434662 1181.846313,561.027405 
	C1019.885498,657.903687 876.631226,777.440979 752.518494,919.696289 
	C611.782288,1081.005249 503.031311,1261.568115 427.239868,1461.866333 
	C373.682770,1603.405029 338.660156,1749.362793 323.098419,1899.932861 
	C314.804779,1980.179565 310.006927,2060.540527 313.646942,2141.292725 
	C315.716797,2187.211670 318.074890,2233.053223 322.905457,2278.801270 
	C331.312531,2358.420898 345.095886,2437.051270 364.202759,2514.753662 
	C404.718506,2679.520264 467.919922,2835.149902 553.267944,2981.764404 
	C632.155273,3117.280518 727.282227,3240.216553 838.517700,3350.818115 
	C919.128479,3430.970215 1006.456787,3502.834961 1100.623169,3566.377197 
	C1224.396851,3649.897461 1356.697998,3716.716064 1497.347290,3766.866699 
	C1618.257324,3809.978760 1742.508545,3839.416992 1869.835083,3855.386719 
	C1928.657593,3862.764648 1987.742432,3867.464600 2047.124634,3868.448975 
	C2117.801514,3869.620117 2188.268555,3867.870117 2258.709717,3861.314697 
	C2337.799561,3853.954834 2415.981689,3841.469238 2493.308838,3823.619873 
	C2662.597412,3784.543457 2822.711670,3721.769287 2973.418213,3635.393066 
	C3147.835938,3535.427002 3301.263428,3409.677490 3433.460938,3258.132324 
	C3541.000977,3134.853760 3630.212158,2999.496338 3700.454102,2851.750000 
	C3772.989746,2699.179688 3822.744629,2539.512939 3849.586426,2372.628418 
	C3861.348145,2299.502441 3868.516846,2225.959229 3871.389648,2152.067383 
	C3874.993164,2059.385498 3870.681152,1966.880127 3859.437012,1874.798218 
	C3849.577393,1794.056519 3834.300049,1714.312744 3813.506348,1635.626221 
	C3776.044678,1493.866699 3721.766113,1358.887329 3650.719971,1230.660034 
	C3539.258301,1029.488770 3394.284424,856.186218 3216.317139,710.643433 
	C3085.515869,603.673462 2942.266602,517.026917 2783.946777,449.529205 
z"/>
<path fill="#FEFFFF" opacity="1.000000" stroke="none" 
	d="
M2785.320801,450.211853 
	C2942.266602,517.026917 3085.515869,603.673462 3216.317139,710.643433 
	C3394.284424,856.186218 3539.258301,1029.488770 3650.719971,1230.660034 
	C3721.766113,1358.887329 3776.044678,1493.866699 3813.506348,1635.626221 
	C3834.300049,1714.312744 3849.577393,1794.056519 3859.437012,1874.798218 
	C3870.681152,1966.880127 3874.993164,2059.385498 3871.389648,2152.067383 
	C3868.516846,2225.959229 3861.348145,2299.502441 3849.586426,2372.628418 
	C3822.744629,2539.512939 3772.989746,2699.179688 3700.454102,2851.750000 
	C3630.212158,2999.496338 3541.000977,3134.853760 3433.460938,3258.132324 
	C3301.263428,3409.677490 3147.835938,3535.427002 2973.418213,3635.393066 
	C2822.711670,3721.769287 2662.597412,3784.543457 2493.308838,3823.619873 
	C2415.981689,3841.469238 2337.799561,3853.954834 2258.709717,3861.314697 
	C2188.268555,3867.870117 2117.801514,3869.620117 2047.124634,3868.448975 
	C1987.742432,3867.464600 1928.657593,3862.764648 1869.835083,3855.386719 
	C1742.508545,3839.416992 1618.257324,3809.978760 1497.347290,3766.866699 
	C1356.697998,3716.716064 1224.396851,3649.897461 1100.623169,3566.377197 
	C1006.456787,3502.834961 919.128479,3430.970215 838.517700,3350.818115 
	C727.282227,3240.216553 632.155273,3117.280518 553.267944,2981.764404 
	C467.919922,2835.149902 404.718506,2679.520264 364.202759,2514.753662 
	C345.095886,2437.051270 331.312531,2358.420898 322.905457,2278.801270 
	C318.074890,2233.053223 315.716797,2187.211670 313.646942,2141.292725 
	C310.006927,2060.540527 314.804779,1980.179565 323.098419,1899.932861 
	C338.660156,1749.362793 373.682770,1603.405029 427.239868,1461.866333 
	C503.031311,1261.568115 611.782288,1081.005249 752.518494,919.696289 
	C876.631226,777.440979 1019.885498,657.903687 1181.846313,561.027405 
	C1334.974121,469.434662 1498.257935,402.203552 1671.762085,360.116791 
	C1750.844971,340.933716 1830.823242,327.016815 1911.845703,319.054413 
	C1955.623901,314.752106 1999.453247,312.256531 2043.427979,310.746002 
	C2112.799072,308.363098 2182.007568,310.568665 2251.013672,316.701233 
	C2389.566162,329.014374 2525.064941,356.859924 2656.792969,401.779022 
	C2699.624512,416.384613 2741.586914,433.540070 2785.320801,450.211853 
M3406.600586,2679.513184 
	C3416.610596,2676.728760 3426.620850,2673.944336 3439.879395,2670.256104 
	C3422.953613,2667.857910 3422.953613,2667.857910 3401.066406,2674.834717 
	C3383.308838,2678.150146 3365.551025,2681.465332 3344.663330,2684.864014 
	C3301.408203,2692.647705 3258.186768,2700.625732 3214.890137,2708.172119 
	C3140.735352,2721.096436 3066.598145,2734.142578 2992.333496,2746.410400 
	C2914.130615,2759.328857 2835.858398,2771.869629 2757.483398,2783.693359 
	C2686.350098,2794.424805 2615.098877,2804.428955 2543.785889,2813.897217 
	C2484.361572,2821.786865 2424.837891,2829.044434 2365.236328,2835.447754 
	C2314.251465,2840.925293 2263.086426,2844.711426 2212.014404,2849.392822 
	C2146.960205,2855.355713 2081.693359,2856.574951 2016.449829,2858.131104 
	C1999.164429,2858.543457 1981.843262,2857.089844 1964.535767,2856.999023 
	C1890.489868,2856.610840 1816.848755,2849.725098 1743.264771,2842.630371 
	C1691.566284,2837.645996 1639.978149,2831.281250 1588.489014,2824.419434 
	C1518.502808,2815.093750 1448.576416,2805.242676 1378.777222,2794.612305 
	C1316.889893,2785.186523 1255.162842,2774.674316 1193.454346,2764.119141 
	C1129.114502,2753.113525 1064.832886,2741.749756 1000.614685,2730.055176 
	C925.918213,2716.452393 851.318298,2702.320068 774.444458,2687.016602 
	C752.246704,2682.980713 730.048950,2678.944824 705.854980,2672.904053 
	C694.294983,2669.856201 682.788025,2666.437744 668.156128,2666.954102 
	C671.522095,2669.499756 672.759766,2671.110596 674.303284,2671.495361 
	C685.601807,2674.313965 696.961731,2676.886963 711.277954,2680.134277 
	C732.898376,2685.285645 754.518799,2690.437012 778.993835,2696.584229 
	C799.664978,2701.718750 820.302856,2706.991699 841.012695,2711.965332 
	C958.854797,2740.263672 1077.104248,2766.779297 1196.045044,2790.014404 
	C1279.028564,2806.225342 1362.235107,2821.363281 1445.544922,2835.810303 
	C1502.614258,2845.707031 1559.989502,2853.885986 1617.311157,2862.264160 
	C1651.573120,2867.272217 1685.917725,2871.958008 1720.363403,2875.410400 
	C1776.675415,2881.054443 1833.035645,2886.557373 1889.497437,2890.259521 
	C1935.310669,2893.263184 1981.316406,2895.018555 2027.212524,2894.609131 
	C2075.105225,2894.182129 2123.020264,2891.266357 2170.831543,2888.041748 
	C2223.972656,2884.457764 2277.115234,2880.291504 2330.059326,2874.552490 
	C2388.302490,2868.239258 2446.413086,2860.497559 2504.412598,2852.197021 
	C2577.572754,2841.726807 2650.707031,2830.926758 2723.590576,2818.707275 
	C2829.306885,2800.982910 2934.666992,2781.208252 3039.656982,2759.534180 
	C3142.692139,2738.263672 3245.659180,2716.680664 3351.060303,2691.684326 
	C3368.538574,2687.573975 3386.017090,2683.463379 3406.600586,2679.513184 
M3507.724609,2104.153320 
	C3508.032715,2105.449463 3508.254395,2106.773682 3508.662354,2108.037842 
	C3518.846924,2139.610596 3504.997314,2180.973145 3460.280273,2193.007568 
	C3441.341064,2198.104248 3422.314697,2199.531982 3402.938721,2196.459473 
	C3371.628906,2191.494629 3346.208496,2177.918213 3332.021484,2144.540771 
	C3331.825439,2140.560059 3331.672607,2136.576904 3331.425781,2132.599365 
	C3330.539062,2118.299316 3336.245117,2106.924316 3346.340332,2097.114502 
	C3353.132812,2090.513916 3360.705811,2085.345947 3369.359619,2081.687988 
	C3374.859619,2079.363281 3380.510986,2077.381836 3385.927734,2074.885254 
	C3387.332520,2074.237793 3388.111084,2072.232666 3389.383545,2070.584473 
	C3379.537598,2068.341309 3348.418701,2067.635010 3336.095459,2069.492432 
	C3333.799316,2069.838623 3331.690674,2071.431396 3328.638428,2072.846436 
	C3334.113037,2079.209717 3335.391846,2085.028076 3332.490479,2091.882568 
	C3330.176514,2097.349854 3328.686279,2103.216309 3327.305664,2109.018311 
	C3324.222656,2121.974609 3321.651611,2135.006592 3326.466309,2151.487549 
	C3332.424805,2189.971680 3353.486328,2215.742188 3390.851562,2227.590332 
	C3409.628174,2233.543701 3429.024414,2234.297363 3448.145264,2230.871094 
	C3474.108398,2226.218994 3496.331055,2213.988770 3508.897949,2189.906738 
	C3524.764160,2159.502441 3527.307617,2127.887207 3511.510498,2093.390869 
	C3496.302734,2072.439209 3476.326172,2062.617188 3461.760986,2069.464844 
	C3463.569824,2070.553711 3464.983643,2071.974854 3466.615723,2072.299561 
	C3484.428223,2075.842773 3497.417969,2086.096680 3507.724609,2104.153320 
M2316.941406,1910.880249 
	C2253.630371,1910.882446 2190.319336,1910.841064 2127.008545,1910.990601 
	C2123.006348,1911.000000 2117.877930,1908.836914 2114.861084,1914.069092 
	C2116.362793,1915.285156 2117.247070,1916.311890 2118.365967,1916.861694 
	C2139.871094,1927.426880 2153.076660,1944.622559 2161.440186,1966.941162 
	C2172.649170,1996.852783 2185.825928,2026.020752 2197.467041,2055.778076 
	C2247.188965,2182.879150 2296.694092,2310.065430 2346.184082,2437.257080 
	C2355.839600,2462.071777 2365.213135,2486.999023 2374.436523,2511.977783 
	C2377.890381,2521.331299 2380.430176,2530.865479 2380.456055,2541.142822 
	C2380.493652,2556.062012 2374.034424,2566.608398 2361.411377,2573.785645 
	C2357.437988,2576.045410 2353.255371,2577.937012 2349.729980,2579.713623 
	C2348.192383,2585.831787 2347.385742,2590.897461 2350.821777,2596.482178 
	C2357.498047,2596.697021 2364.078125,2597.087158 2370.658936,2597.093018 
	C2426.639404,2597.141846 2482.619629,2597.133545 2538.600098,2597.108398 
	C2547.926514,2597.104248 2557.256104,2597.041016 2566.576172,2596.750244 
	C2568.399414,2596.693359 2570.186279,2595.458008 2572.825684,2594.445312 
	C2572.545898,2589.293945 2572.268066,2584.182617 2571.988525,2579.035645 
	C2566.752441,2577.043457 2562.383057,2575.605957 2558.199463,2573.750244 
	C2540.299805,2565.810547 2535.424561,2555.509277 2540.902344,2536.964111 
	C2542.218506,2532.508057 2544.199707,2528.244629 2545.945312,2523.920898 
	C2550.682129,2512.188721 2555.494141,2500.487305 2560.209961,2488.746826 
	C2607.853760,2370.130859 2655.479004,2251.507324 2703.135254,2132.896240 
	C2705.267090,2127.590332 2707.644287,2122.383057 2710.096924,2116.689453 
	C2717.106201,2120.619141 2717.713867,2127.126709 2719.850098,2132.370850 
	C2747.728516,2200.815186 2775.649902,2269.244873 2803.001709,2337.900635 
	C2824.439941,2391.713135 2845.222168,2445.789062 2866.011475,2499.857178 
	C2870.299072,2511.008301 2874.061035,2522.471924 2876.776367,2534.092773 
	C2881.509766,2554.352295 2874.278076,2567.749023 2855.637207,2575.701416 
	C2852.060303,2577.227295 2848.522705,2578.845215 2845.088867,2580.366699 
	C2845.088867,2585.659912 2845.088867,2590.179688 2845.088867,2596.016602 
	C2851.528564,2596.409180 2857.365479,2597.067383 2863.202881,2597.073975 
	C2927.180420,2597.147705 2991.157959,2597.125732 3055.135498,2597.104736 
	C3059.129395,2597.103516 3063.149658,2597.129150 3067.104736,2596.677979 
	C3068.865723,2596.477051 3070.494873,2595.122559 3073.068604,2593.856445 
	C3072.559326,2588.788574 3072.052979,2583.749023 3071.578369,2579.024902 
	C3066.048340,2577.001221 3061.593506,2575.660645 3057.382568,2573.775146 
	C3045.286377,2568.359375 3038.303711,2559.190186 3039.093018,2545.628418 
	C3039.552002,2537.744873 3040.460449,2529.641357 3042.837646,2522.167969 
	C3047.473633,2507.593506 3053.094727,2493.319336 3058.636475,2479.048340 
	C3114.067627,2336.305908 3169.487061,2193.558350 3225.110596,2050.890625 
	C3236.474854,2021.741821 3248.537354,1992.861450 3260.537354,1963.965210 
	C3268.947266,1943.714478 3281.653809,1927.033081 3301.653564,1916.749268 
	C3303.058350,1916.026978 3303.996338,1914.397461 3305.611572,1912.708740 
	C3289.404053,1910.483521 3121.197510,1909.482178 3085.289307,1911.360107 
	C3084.432861,1911.405029 3083.646240,1912.789795 3082.014648,1914.303101 
	C3087.070312,1917.502563 3092.196777,1920.211792 3096.713379,1923.708984 
	C3108.665527,1932.963623 3111.547119,1943.024170 3106.793701,1957.232788 
	C3106.162842,1959.118896 3105.118164,1960.862671 3104.407715,1962.726807 
	C3082.832275,2019.342896 3061.142334,2075.916016 3039.749756,2132.600830 
	C3015.302246,2197.380127 2991.200439,2262.290039 2966.646484,2327.028564 
	C2965.010010,2331.343018 2965.687012,2338.217529 2957.764893,2339.034912 
	C2955.725586,2334.191162 2953.555420,2329.358398 2951.635498,2324.427734 
	C2917.087158,2235.711670 2882.452881,2147.029053 2848.110596,2058.233398 
	C2836.826172,2029.056152 2825.916748,1999.719360 2815.573486,1970.197144 
	C2806.819336,1945.210571 2810.431641,1934.296875 2830.742920,1918.058105 
	C2832.761719,1916.444214 2835.175293,1915.090088 2833.413330,1911.871216 
	C2807.441895,1909.808960 2611.302002,1910.476440 2594.700195,1912.937988 
	C2600.659668,1916.474609 2605.750732,1919.094604 2610.407227,1922.338989 
	C2621.635742,1930.162109 2625.411133,1940.244263 2622.021484,1953.572998 
	C2620.550537,1959.357788 2618.456543,1965.013550 2616.273926,1970.582031 
	C2610.928711,1984.216797 2605.458008,1997.804199 2599.878906,2011.345093 
	C2556.252686,2117.225342 2512.604248,2223.096436 2468.875732,2328.934570 
	C2467.263916,2332.836182 2464.753418,2336.366455 2461.740234,2341.700928 
	C2458.800293,2334.805664 2456.531494,2330.019287 2454.684326,2325.075195 
	C2415.544434,2220.301514 2376.399170,2115.529541 2337.402832,2010.702148 
	C2330.906006,1993.238037 2325.335693,1975.430054 2318.885498,1957.947754 
	C2314.684570,1946.561646 2317.836426,1936.985962 2324.928223,1928.242065 
	C2327.830566,1924.663452 2331.702148,1921.881226 2335.036377,1918.637695 
	C2336.747314,1916.973389 2339.781006,1915.832764 2337.596191,1911.518066 
	C2332.272217,1911.318115 2326.443115,1911.099365 2316.941406,1910.880249 
M1923.609131,2254.524902 
	C1895.175659,2197.282471 1866.587891,2140.115967 1838.367676,2082.768555 
	C1821.909058,2049.322021 1805.972046,2015.617920 1789.956787,1981.955200 
	C1786.531128,1974.754272 1782.949707,1967.455200 1780.895020,1959.810425 
	C1776.633789,1943.955566 1778.157471,1929.343018 1793.080200,1918.875244 
	C1794.984863,1917.539185 1798.179443,1916.782715 1797.677612,1913.289307 
	C1796.693726,1912.577393 1795.755371,1911.303833 1794.815308,1911.302734 
	C1720.879761,1911.207886 1646.944092,1911.205200 1573.008545,1911.292725 
	C1572.035522,1911.293823 1571.064087,1912.536011 1569.062744,1913.901001 
	C1572.734985,1917.543213 1576.489136,1920.943115 1579.869751,1924.680786 
	C1589.467651,1935.293213 1593.076172,1947.737793 1589.575562,1961.659424 
	C1587.968506,1968.049927 1585.382324,1974.286987 1582.538330,1980.259277 
	C1555.634155,2036.755493 1528.645386,2093.211670 1501.552856,2149.617676 
	C1448.522339,2260.025146 1395.459717,2370.416992 1342.284424,2480.754639 
	C1332.749023,2500.540039 1322.748413,2520.105469 1312.706177,2539.640625 
	C1304.250488,2556.089355 1292.282471,2569.113281 1274.964111,2576.641113 
	C1272.565674,2577.683838 1270.415283,2579.296875 1267.208618,2581.206787 
	C1267.594604,2585.987549 1267.991821,2590.905762 1268.491699,2597.096924 
	C1341.711182,2597.096924 1413.575928,2597.111328 1485.440552,2597.050537 
	C1488.660522,2597.047607 1491.880127,2596.363525 1495.913086,2595.904297 
	C1495.913086,2590.220947 1495.913086,2585.285156 1495.913086,2580.147949 
	C1491.924438,2578.705811 1488.812866,2577.622314 1485.730713,2576.459961 
	C1467.095459,2569.429932 1460.727417,2559.175049 1463.384277,2539.608643 
	C1463.999512,2535.077637 1465.352173,2530.435303 1467.370728,2526.339355 
	C1485.307617,2489.940918 1503.470825,2453.654053 1522.060913,2416.343018 
	C1548.149292,2416.343018 1574.080078,2416.343262 1600.010986,2416.343262 
	C1625.994141,2416.343262 1651.977173,2416.343262 1677.960327,2416.343262 
	C1704.609619,2416.343262 1731.260620,2416.164795 1757.907837,2416.394287 
	C1783.719849,2416.616455 1809.578735,2415.350830 1834.300781,2417.214111 
	C1836.210938,2419.379639 1837.371216,2420.240234 1837.928467,2421.392578 
	C1854.439331,2455.540039 1870.991821,2489.668945 1887.245850,2523.938721 
	C1889.783813,2529.289307 1891.334595,2535.212402 1892.625610,2541.030029 
	C1895.919189,2555.869873 1891.549438,2565.304443 1878.155151,2572.412354 
	C1872.395630,2575.468994 1866.281372,2577.856934 1860.350464,2580.538330 
	C1860.142822,2583.940430 1859.792114,2586.581299 1859.885010,2589.206299 
	C1859.952637,2591.117920 1860.605957,2593.008545 1861.292114,2596.332275 
	C1867.651733,2596.590332 1874.170166,2597.079834 1880.688965,2597.084717 
	C1952.642212,2597.139648 2024.595337,2597.124756 2096.548584,2597.108154 
	C2101.208496,2597.107178 2105.882568,2597.118164 2110.521729,2596.760010 
	C2112.375000,2596.617188 2114.152100,2595.488037 2116.795654,2594.495361 
	C2116.541992,2589.340332 2116.290039,2584.220947 2116.052002,2579.382568 
	C2113.326416,2578.014160 2111.658936,2576.946045 2109.841309,2576.299561 
	C2090.647705,2569.474854 2077.055664,2556.621338 2068.022705,2538.459473 
	C2061.205811,2524.753174 2053.661377,2511.410645 2046.730957,2497.759033 
	C2006.045532,2417.613037 1965.445312,2337.424072 1923.609131,2254.524902 
M776.045044,1932.129272 
	C779.405151,1928.915161 782.805420,1925.741821 786.114319,1922.475952 
	C789.581360,1919.053955 795.734741,1918.305298 797.007812,1912.300781 
	C795.202026,1911.754517 793.966125,1911.054443 792.729614,1911.053345 
	C728.077759,1910.996704 663.425842,1910.975342 598.774231,1911.108887 
	C596.779236,1911.113037 594.787720,1912.789917 591.641846,1914.205811 
	C597.962524,1918.936768 602.671448,1922.631958 607.557495,1926.076172 
	C613.974792,1930.599731 617.156006,1936.231812 617.215942,1944.495972 
	C617.481873,1981.116821 618.766296,2017.733154 618.814941,2054.352051 
	C619.014832,2204.987305 618.927063,2355.623291 618.829956,2506.258789 
	C618.823975,2515.551025 618.082336,2524.865723 617.246521,2534.130615 
	C614.560242,2563.904785 612.830994,2566.376465 586.134399,2580.259766 
	C586.134399,2584.911865 586.134399,2589.922852 586.134399,2595.450684 
	C594.700989,2598.141357 602.725586,2597.069336 610.580505,2597.071777 
	C804.540466,2597.136719 998.500366,2597.122314 1192.460327,2597.124023 
	C1197.792480,2597.124023 1203.127808,2597.265869 1208.456055,2597.126953 
	C1217.336182,2596.895264 1223.863892,2600.814941 1228.242188,2608.306641 
	C1232.595459,2615.755127 1236.670410,2623.366211 1241.024536,2631.188477 
	C1245.417969,2631.188477 1249.814819,2631.188477 1254.756470,2631.188477 
	C1255.120239,2626.993408 1255.657959,2623.723145 1255.649780,2620.454346 
	C1255.509277,2564.483154 1255.303833,2508.512207 1255.071899,2452.541260 
	C1255.069458,2451.941162 1254.595703,2451.290283 1254.208984,2450.760010 
	C1253.851318,2450.269775 1253.315308,2449.909424 1252.326782,2449.007324 
	C1248.971069,2449.007324 1245.084717,2449.007324 1241.034302,2449.007324 
	C1239.089844,2452.977295 1237.366455,2456.554932 1235.592285,2460.107178 
	C1228.408936,2474.489014 1217.858765,2483.172607 1200.691895,2481.133301 
	C1196.748413,2480.664795 1192.701782,2481.064941 1188.702637,2481.064941 
	C1076.725708,2481.064941 964.748840,2481.066406 852.771973,2481.064453 
	C830.109985,2481.063965 807.447571,2481.125732 784.786560,2480.971436 
	C781.054260,2480.946289 777.328613,2479.948730 772.319763,2479.212402 
	C772.319763,2470.812500 772.320251,2463.579102 772.319702,2456.345947 
	C772.313538,2374.363037 772.300415,2292.379883 772.302795,2210.396973 
	C772.305298,2122.429688 772.297974,2034.462280 772.414368,1946.495117 
	C772.419495,1942.607910 773.611023,1938.722290 776.045044,1932.129272 
M2640.334473,1618.866455 
	C2640.737061,1614.396118 2641.139648,1609.925903 2641.514893,1605.759888 
	C2658.599365,1603.134399 2848.594238,1602.963257 2866.296631,1605.415771 
	C2871.611572,1611.937256 2876.895752,1618.812622 2882.615723,1625.303711 
	C2886.532715,1629.748413 2891.309814,1631.005005 2897.574707,1625.917114 
	C2897.574707,1621.414673 2897.591309,1616.149292 2897.572021,1610.884277 
	C2897.424805,1570.906128 2897.274414,1530.927856 2897.084229,1490.949829 
	C2897.081543,1490.342407 2896.644043,1489.680420 2896.263916,1489.147705 
	C2895.895020,1488.630615 2895.338379,1488.247681 2894.864014,1487.805786 
	C2884.566895,1487.916382 2884.450195,1487.817261 2880.946533,1491.943726 
	C2875.403809,1498.472168 2870.035400,1505.148682 2864.692627,1511.642090 
	C2795.621582,1511.642090 2727.657471,1511.651733 2659.693359,1511.620972 
	C2655.039795,1511.618896 2650.385986,1511.328247 2645.733643,1511.135986 
	C2645.078857,1511.108765 2644.361816,1511.005493 2643.802734,1510.700562 
	C2643.241699,1510.394531 2642.842529,1509.791870 2641.184326,1508.125122 
	C2640.995117,1506.248413 2640.401855,1503.062500 2640.395020,1499.875122 
	C2640.328369,1468.546509 2640.283203,1437.217285 2640.464355,1405.889648 
	C2640.485596,1402.212524 2641.904053,1398.543579 2642.742920,1394.546753 
	C2647.706055,1394.184448 2651.642822,1393.648193 2655.579590,1393.646240 
	C2757.564697,1393.598755 2859.550049,1393.665039 2961.534912,1393.504517 
	C2970.621338,1393.490234 2978.577148,1394.992798 2985.164307,1401.785522 
	C2987.907959,1404.614746 2991.175537,1407.380493 2994.750244,1408.829102 
	C2998.059814,1410.170166 3002.097168,1409.714844 3005.743164,1410.044189 
	C3008.553223,1391.513306 3008.359863,1300.815308 3005.659180,1285.798462 
	C2998.244141,1282.284546 2992.609863,1285.881226 2987.863770,1290.877197 
	C2979.894775,1299.265625 2970.361328,1302.305664 2959.057129,1301.114868 
	C2955.101562,1300.698120 2951.065430,1301.048828 2947.065918,1301.048828 
	C2805.753174,1301.048828 2664.440186,1301.022461 2523.127441,1301.125854 
	C2515.950439,1301.131104 2508.545410,1299.653198 2500.364502,1303.209717 
	C2500.870361,1306.787964 2500.544678,1310.886353 2502.135254,1314.008545 
	C2503.874756,1317.423706 2507.126465,1320.248779 2510.177246,1322.778931 
	C2516.995605,1328.433716 2519.236328,1335.576660 2518.483643,1344.138062 
	C2518.134766,1348.106689 2518.425537,1352.131714 2518.425537,1356.131104 
	C2518.425537,1480.113159 2518.385742,1604.095215 2518.476074,1728.077271 
	C2518.487305,1743.390381 2519.357666,1758.701660 2519.497803,1774.016724 
	C2519.558594,1780.654419 2519.056641,1787.331909 2518.306152,1793.933960 
	C2517.366699,1802.199829 2514.534180,1809.439575 2506.004639,1813.025757 
	C2497.444336,1816.624756 2499.123535,1822.896118 2501.934082,1830.679443 
	C2509.276611,1830.770752 2516.525146,1830.938843 2523.773682,1830.939575 
	C2670.419189,1830.954956 2817.064453,1830.926392 2963.709961,1831.019165 
	C2971.558105,1831.024048 2979.635254,1829.609009 2987.772461,1832.937988 
	C2992.723389,1840.699585 2997.625000,1848.616211 3002.774414,1856.367798 
	C3005.822998,1860.956421 3009.852051,1862.023560 3015.222900,1858.073364 
	C3015.222900,1812.595337 3015.236084,1766.665894 3015.137695,1720.736572 
	C3015.135254,1719.699585 3013.864990,1718.665161 3012.420898,1716.462524 
	C3009.871826,1717.320801 3006.383301,1717.588501 3004.235596,1719.424683 
	C3000.741943,1722.411499 2997.846191,1726.230103 2995.195312,1730.043213 
	C2989.057861,1738.871826 2981.567139,1742.733398 2970.098633,1742.679932 
	C2866.115967,1742.194702 2762.130127,1742.412476 2658.145264,1742.345093 
	C2652.957031,1742.341797 2647.769043,1741.606812 2643.238525,1741.262451 
	C2642.035645,1738.984497 2640.889893,1737.822876 2640.882324,1736.653687 
	C2640.631592,1698.667114 2640.490234,1660.679810 2640.334473,1618.866455 
M3130.419922,1470.000244 
	C3129.968262,1497.288330 3129.190918,1524.575684 3129.127441,1551.864624 
	C3128.949219,1628.486694 3129.117188,1705.109619 3128.978760,1781.731812 
	C3128.965820,1788.887573 3130.712402,1796.377808 3126.286133,1804.101196 
	C3107.306152,1810.021851 3087.729004,1816.129028 3068.754395,1822.048096 
	C3066.561035,1832.920288 3066.587891,1832.919800 3069.076660,1842.167236 
	C3085.161377,1844.164795 3233.151611,1845.287109 3278.520508,1843.645996 
	C3283.759033,1843.456543 3288.970947,1842.529663 3293.991699,1841.967407 
	C3297.372803,1834.866577 3297.074707,1828.545532 3294.435791,1821.989502 
	C3278.954834,1814.504395 3261.442383,1811.934082 3246.591797,1802.536987 
	C3246.227295,1799.383057 3245.668457,1796.791504 3245.666016,1794.199585 
	C3245.611328,1730.902954 3245.572998,1667.606079 3245.716553,1604.309814 
	C3245.725098,1600.621460 3247.293945,1596.936890 3248.112061,1593.356934 
	C3269.461670,1589.921143 3284.174805,1597.080933 3293.406494,1615.641235 
	C3298.444580,1625.769653 3304.060547,1635.609985 3309.385498,1645.596558 
	C3334.151855,1692.044922 3360.071777,1737.834473 3389.805420,1781.309082 
	C3398.408936,1793.888672 3408.445068,1805.590088 3418.659424,1816.942505 
	C3433.413330,1833.339478 3452.573975,1842.763184 3473.872803,1847.116333 
	C3504.798340,1853.437012 3536.038574,1853.649414 3567.261963,1849.047363 
	C3573.152588,1848.179077 3579.091553,1846.978516 3584.693359,1845.026978 
	C3588.966553,1843.538330 3593.120117,1841.084839 3596.643311,1838.219727 
	C3601.084717,1834.608765 3600.216553,1827.498901 3595.201172,1824.588257 
	C3591.788330,1822.607666 3587.961182,1821.321777 3584.275879,1819.833252 
	C3557.050049,1808.836548 3534.056641,1792.448242 3518.192139,1767.261475 
	C3479.858887,1706.403564 3441.629639,1645.480103 3403.478027,1584.508179 
	C3401.531494,1581.397827 3400.706543,1577.585693 3399.327148,1574.015991 
	C3409.589600,1569.764038 3419.024170,1566.412598 3427.968994,1562.056152 
	C3476.206787,1538.562378 3506.422363,1501.159546 3514.110107,1447.372314 
	C3519.408936,1410.299438 3513.669434,1375.632812 3488.170410,1346.238770 
	C3477.094727,1333.470947 3463.663818,1323.813843 3448.756836,1316.052856 
	C3417.317627,1299.685059 3383.513916,1293.235107 3348.465576,1293.132202 
	C3260.517090,1292.873657 3172.567139,1293.036255 3084.617920,1293.067749 
	C3079.431152,1293.069580 3074.244141,1293.404907 3069.059570,1293.584961 
	C3065.474365,1300.915527 3065.694092,1307.226929 3068.588867,1314.380981 
	C3088.443604,1320.564941 3108.627930,1326.851685 3127.549072,1332.744873 
	C3128.868896,1335.734375 3129.847412,1336.922363 3129.854248,1338.115845 
	C3130.099854,1380.743408 3130.254883,1423.371704 3130.419922,1470.000244 
M893.998657,1511.643433 
	C851.353333,1511.642578 808.707825,1511.691406 766.062805,1511.575684 
	C760.995056,1511.561890 755.929749,1510.649780 750.261230,1510.095215 
	C749.800110,1505.612427 749.188477,1502.392212 749.181091,1499.170776 
	C749.109314,1467.853149 749.054321,1436.534790 749.251648,1405.218140 
	C749.274902,1401.520264 750.839966,1397.832153 751.740173,1393.922974 
	C757.336121,1393.625854 761.952393,1393.168701 766.568848,1393.166870 
	C863.854187,1393.128052 961.139771,1393.267456 1058.424438,1393.014771 
	C1074.165405,1392.973877 1089.016846,1393.892456 1100.227417,1406.833862 
	C1101.068359,1407.804810 1102.331665,1408.862061 1103.506470,1409.007202 
	C1107.064697,1409.446655 1110.675903,1409.457031 1115.708496,1409.706055 
	C1115.708496,1387.648438 1116.043335,1367.062012 1115.613770,1346.491577 
	C1115.189209,1326.154663 1117.520996,1305.674316 1113.972168,1284.136963 
	C1109.022339,1285.222046 1105.011719,1285.387573 1101.726562,1287.016357 
	C1098.233154,1288.748169 1095.245850,1291.676147 1092.360474,1294.421143 
	C1087.236084,1299.296265 1081.368896,1301.559448 1074.265625,1301.094604 
	C1069.621460,1300.790527 1064.940674,1301.049683 1060.276367,1301.049683 
	C918.346375,1301.050415 776.416443,1301.049927 634.486450,1301.051514 
	C629.155823,1301.051514 623.815552,1300.879761 618.498169,1301.150269 
	C615.426575,1301.306519 612.391846,1302.188965 608.147156,1302.961792 
	C609.053467,1307.357544 608.971375,1310.833740 610.485535,1313.348999 
	C612.498657,1316.692993 615.457886,1319.659424 618.538025,1322.130981 
	C625.981140,1328.104126 628.755859,1335.683105 627.700562,1344.971069 
	C627.476318,1346.944580 627.668945,1348.965454 627.668945,1350.964478 
	C627.669006,1496.892456 627.668945,1642.820435 627.668945,1788.748413 
	C627.668945,1795.366577 627.669006,1801.984863 627.669006,1805.874390 
	C621.922058,1818.834106 605.386902,1822.194946 609.448242,1837.570557 
	C624.971436,1840.402222 749.568909,1840.584351 766.715088,1837.859375 
	C768.874512,1833.235474 768.700378,1828.801025 765.265991,1824.861084 
	C763.081604,1822.355225 760.916260,1819.659790 758.222412,1817.804199 
	C750.803833,1812.694092 748.960144,1805.728149 748.994568,1797.078979 
	C749.233582,1737.109497 749.101074,1677.138672 749.198853,1617.168335 
	C749.205139,1613.332520 750.139832,1609.498291 750.721313,1605.063110 
	C769.987671,1602.468262 788.556519,1604.066284 807.043701,1603.782104 
	C825.696777,1603.495361 844.357666,1603.718994 863.015137,1603.718994 
	C881.672607,1603.718994 900.330078,1603.685791 918.987488,1603.728149 
	C937.552307,1603.770142 956.117065,1603.887939 973.880554,1603.968750 
	C980.366028,1611.816895 985.715393,1618.625122 991.438782,1625.102905 
	C995.526001,1629.728638 1000.462952,1630.159790 1005.566101,1626.556763 
	C1007.774841,1606.622925 1007.410461,1503.939941 1005.075500,1489.074829 
	C999.814331,1485.820679 994.939514,1486.462158 990.892029,1491.091797 
	C985.214905,1497.585693 979.786072,1504.296631 973.641602,1511.643311 
	C948.574646,1511.643311 923.285950,1511.643311 893.998657,1511.643433 
M1457.114624,1397.080078 
	C1458.220337,1409.018677 1459.255493,1420.964844 1460.505249,1432.888306 
	C1460.701050,1434.755615 1461.872192,1436.520752 1462.844849,1438.968018 
	C1468.023560,1438.968018 1473.191284,1438.968018 1479.156006,1438.968018 
	C1483.097412,1431.874756 1487.459961,1425.170898 1490.705444,1417.963989 
	C1499.785645,1397.800415 1505.309082,1376.592285 1508.264038,1354.674683 
	C1509.131958,1348.237671 1508.310425,1341.277344 1513.881836,1334.467407 
	C1525.438721,1332.836914 1538.050659,1333.922363 1550.577271,1333.742432 
	C1563.906616,1333.551147 1577.244019,1333.514160 1590.571777,1333.753540 
	C1603.020508,1333.977051 1615.622437,1332.495239 1627.999756,1335.150635 
	C1631.336914,1343.278442 1630.261963,1350.657593 1630.276855,1357.825684 
	C1630.378052,1406.487427 1630.330078,1455.149536 1630.330078,1503.811523 
	C1630.330200,1595.136108 1630.374634,1686.460693 1630.243164,1777.785034 
	C1630.232788,1784.936890 1632.082031,1792.480347 1627.621460,1799.365356 
	C1604.648926,1809.564941 1579.436646,1813.839844 1555.908081,1824.502563 
	C1556.259521,1829.534790 1556.565063,1833.910889 1556.855347,1838.068604 
	C1575.407227,1840.427979 1746.523193,1841.509644 1807.639648,1839.725464 
	C1810.853149,1839.631592 1814.049316,1838.944336 1817.006714,1838.564941 
	C1819.149658,1824.102783 1819.075073,1823.692993 1808.157837,1820.122803 
	C1791.069092,1814.534790 1773.875366,1809.268188 1756.784790,1803.685547 
	C1752.533569,1802.296875 1748.508057,1800.217651 1743.849365,1798.230103 
	C1743.849365,1646.123291 1743.842407,1494.853638 1743.907959,1343.583984 
	C1743.909058,1341.041870 1744.789917,1338.500000 1745.350464,1335.470581 
	C1748.274536,1334.861084 1750.769287,1333.893921 1753.266235,1333.888062 
	C1787.260498,1333.807861 1821.255249,1333.815308 1855.249023,1333.976196 
	C1857.663452,1333.987793 1860.071411,1335.366333 1861.397827,1335.775024 
	C1862.550781,1337.574829 1863.128540,1338.091309 1863.219849,1338.682861 
	C1863.726685,1341.967163 1864.121948,1345.268799 1864.543335,1348.566040 
	C1868.204590,1377.205933 1875.210571,1404.844849 1889.395630,1430.265015 
	C1895.355835,1440.945801 1897.547974,1441.443359 1913.169312,1436.246704 
	C1914.328247,1420.853271 1915.503296,1404.955811 1916.727539,1389.062256 
	C1917.955200,1373.122681 1919.344971,1357.194824 1920.455200,1341.247437 
	C1921.539795,1325.667847 1925.866943,1310.121460 1922.237793,1292.976562 
	C1913.973022,1292.976562 1906.733276,1292.976562 1899.493530,1292.976562 
	C1804.169312,1292.976562 1708.845215,1292.976318 1613.520996,1292.976562 
	C1564.192383,1292.976562 1514.863770,1292.934082 1465.535400,1293.042480 
	C1460.451294,1293.053711 1455.369263,1293.966797 1449.508301,1294.537109 
	C1452.068604,1328.456909 1454.519531,1360.929321 1457.114624,1397.080078 
M2293.800781,1839.797241 
	C2306.329590,1839.552856 2318.902344,1840.315674 2332.266602,1839.260864 
	C2332.266602,1833.298706 2332.266602,1828.435547 2332.266602,1823.784302 
	C2307.900879,1813.660278 2282.767578,1809.371338 2259.026123,1798.125000 
	C2259.026123,1790.420288 2259.026123,1783.151489 2259.026123,1775.882690 
	C2259.026123,1665.228760 2259.025635,1554.574707 2259.026367,1443.920776 
	C2259.026611,1412.591064 2258.979980,1381.261230 2259.081787,1349.931763 
	C2259.098389,1344.769287 2257.937988,1339.197021 2262.394775,1334.953247 
	C2285.958496,1332.600098 2361.770752,1333.234131 2376.816650,1336.091064 
	C2380.255127,1353.142456 2383.232910,1370.734619 2387.445557,1388.026001 
	C2391.864990,1406.163208 2398.714600,1423.438477 2409.749512,1438.384521 
	C2416.227539,1439.835938 2422.039795,1441.517700 2427.970215,1435.886963 
	C2431.636719,1391.468750 2435.393555,1346.366333 2438.987549,1301.250977 
	C2439.174316,1298.908569 2437.975586,1296.455811 2437.167969,1292.953735 
	C2429.113525,1292.953735 2421.866211,1292.953735 2414.618896,1292.953735 
	C2300.632080,1292.953735 2186.645020,1292.953369 2072.658203,1292.953857 
	C2041.328491,1292.953979 2009.998291,1292.885010 1978.669312,1293.038818 
	C1974.228027,1293.060669 1969.792114,1294.172485 1964.385620,1294.912109 
	C1964.847168,1302.551392 1965.165039,1309.148193 1965.661621,1315.731323 
	C1966.463013,1326.355957 1967.320679,1336.977173 1968.262939,1347.590088 
	C1970.854126,1376.774048 1973.481567,1405.954956 1976.202759,1435.126953 
	C1976.308472,1436.259521 1977.526489,1437.288330 1978.579590,1438.909912 
	C1983.353516,1438.909912 1988.475952,1438.909912 1994.387939,1438.909912 
	C1998.322632,1431.637085 2002.521484,1424.865356 2005.781128,1417.668335 
	C2016.040771,1395.015503 2021.622070,1371.094360 2024.298096,1346.428467 
	C2024.708130,1342.649536 2025.793091,1338.943726 2026.609863,1334.991333 
	C2030.746826,1334.512451 2034.012085,1333.797974 2037.275024,1333.808594 
	C2071.254639,1333.918457 2105.234375,1334.128418 2139.213135,1334.409424 
	C2140.351318,1334.418823 2141.481201,1335.470947 2142.613037,1336.041016 
	C2143.011230,1336.575562 2143.572998,1337.055664 2143.773438,1337.656128 
	C2144.187012,1338.894653 2144.609131,1340.187866 2144.670654,1341.475708 
	C2144.861572,1345.466675 2144.964600,1349.465942 2144.960938,1353.461792 
	C2144.825684,1500.771118 2144.675293,1648.080322 2144.494629,1795.389648 
	C2144.493896,1796.003052 2144.055420,1796.627930 2143.774902,1797.225708 
	C2143.496338,1797.819580 2143.159180,1798.385864 2142.264160,1800.047607 
	C2119.213623,1807.646973 2095.304688,1815.529419 2072.379639,1823.087524 
	C2069.961426,1829.979736 2069.084229,1835.016113 2074.413818,1839.797119 
	C2145.894775,1839.797119 2217.875000,1839.797119 2293.800781,1839.797241 
M1338.957642,1358.518433 
	C1339.386475,1348.632568 1337.886841,1338.628662 1340.243164,1329.035767 
	C1343.447266,1325.934692 1346.371582,1323.220703 1349.157715,1320.371704 
	C1351.469849,1318.007568 1353.897095,1315.678955 1355.780640,1312.989502 
	C1359.299316,1307.964966 1356.497681,1301.711182 1350.694824,1301.158813 
	C1349.372681,1301.032959 1348.035034,1301.033081 1346.704590,1301.033325 
	C1299.429443,1301.041382 1252.154053,1301.030396 1204.879150,1301.145020 
	C1202.445435,1301.150879 1200.014160,1302.237061 1196.943115,1302.973511 
	C1194.786621,1318.746460 1211.938110,1321.125732 1215.705322,1332.624756 
	C1215.705322,1491.077515 1215.705322,1650.147339 1215.705322,1807.777100 
	C1210.365601,1819.362305 1194.378906,1822.754272 1197.383911,1837.804932 
	C1212.927612,1840.273193 1333.665283,1840.592529 1355.981812,1838.174316 
	C1355.981812,1834.628418 1356.621338,1830.798462 1355.754272,1827.346924 
	C1355.187622,1825.091675 1352.727417,1822.962402 1350.613403,1821.505249 
	C1340.767090,1814.718750 1337.626953,1805.333008 1338.889282,1793.843872 
	C1339.322998,1789.896362 1338.957886,1785.861206 1338.957886,1781.866089 
	C1338.957520,1642.037842 1338.957153,1502.209473 1338.957642,1358.518433 
M3328.897949,2501.649658 
	C3329.061768,2526.251953 3329.220459,2550.854004 3329.457764,2575.455566 
	C3329.460205,2575.708496 3330.497803,2575.951172 3331.758545,2576.513916 
	C3332.676270,2575.292969 3334.331299,2574.057373 3334.618164,2572.559814 
	C3337.518555,2557.411133 3347.887451,2552.093750 3361.907227,2551.414062 
	C3364.563721,2551.285156 3367.223633,2551.154297 3369.882080,2551.153076 
	C3405.806641,2551.135986 3441.736084,2551.494873 3477.653564,2550.992432 
	C3495.741943,2550.739258 3508.932861,2556.060059 3513.152344,2575.333008 
	C3513.196289,2575.533936 3514.399170,2575.481201 3515.061279,2575.546875 
	C3517.435303,2553.851807 3516.875244,2430.452148 3514.101562,2415.663818 
	C3497.893311,2414.890137 3481.382080,2414.066895 3464.864014,2413.413086 
	C3464.003418,2413.378662 3463.085938,2414.783203 3461.410889,2416.164795 
	C3465.960938,2421.890869 3473.241943,2421.091309 3478.889893,2423.402832 
	C3491.847412,2428.705811 3502.096191,2436.814941 3506.965576,2450.014404 
	C3510.642578,2459.981201 3512.451416,2470.555664 3511.508545,2481.386963 
	C3509.441406,2505.134277 3499.223633,2515.840088 3475.436279,2518.931152 
	C3472.805420,2519.272949 3470.134033,2519.452881 3467.481201,2519.455811 
	C3434.217773,2519.492920 3400.954102,2519.471191 3367.690674,2519.491699 
	C3350.865234,2519.501953 3337.553711,2514.521484 3333.652832,2495.883789 
	C3333.546875,2495.378174 3332.671875,2495.033447 3331.577393,2494.143311 
	C3330.662109,2495.679688 3329.803955,2497.119873 3328.897949,2501.649658 
M3516.358887,2314.005859 
	C3515.727539,2291.603760 3518.012939,2269.096191 3514.986816,2245.886230 
	C3497.653320,2242.920654 3481.071289,2244.348145 3464.591553,2244.119385 
	C3463.974854,2244.110840 3463.333984,2245.839355 3462.201660,2247.491699 
	C3468.493652,2249.775635 3474.634033,2251.878418 3480.679443,2254.226807 
	C3491.648193,2258.487549 3500.616943,2265.385986 3505.302490,2276.337158 
	C3512.022705,2292.044434 3514.005615,2308.207275 3508.597656,2324.994629 
	C3504.472900,2337.798340 3495.909912,2345.223877 3483.075439,2347.347900 
	C3475.242432,2348.644043 3467.158691,2348.760498 3459.184326,2348.804932 
	C3430.541016,2348.964111 3401.896484,2348.877197 3373.252441,2348.855957 
	C3369.258301,2348.853027 3365.260986,2348.766357 3361.270508,2348.594971 
	C3347.961182,2348.023926 3338.197266,2342.835449 3335.081299,2328.703613 
	C3334.589600,2326.474365 3334.497803,2323.030273 3329.901855,2324.023438 
	C3329.594482,2325.638672 3328.964600,2327.403809 3328.966553,2329.168701 
	C3328.993896,2353.810791 3329.084473,2378.453125 3329.312988,2403.093994 
	C3329.319580,2403.826172 3330.995850,2404.542969 3332.244629,2405.549805 
	C3333.253174,2403.929932 3334.778076,2402.470947 3335.120361,2400.773438 
	C3337.824463,2387.361084 3347.447266,2382.615723 3359.556641,2381.122803 
	C3364.163330,2380.555176 3368.855469,2380.526855 3373.509033,2380.520264 
	C3406.816162,2380.474121 3440.123047,2380.453369 3473.430176,2380.541748 
	C3478.735352,2380.555664 3484.089111,2380.809570 3489.332520,2381.564453 
	C3499.241455,2382.991211 3506.537598,2388.061035 3510.583496,2397.599121 
	C3511.598145,2399.991211 3510.500977,2404.706543 3515.792236,2403.938721 
	C3515.987793,2401.906738 3516.340576,2399.922607 3516.345215,2397.937744 
	C3516.406006,2371.292480 3516.418213,2344.647217 3516.358887,2314.005859 
z"/>
<path fill="#03A5E9" opacity="1.000000" stroke="none" 
	d="
M2318.777832,1910.880371 
	C2326.443115,1911.099365 2332.272217,1911.318115 2337.596191,1911.518066 
	C2339.781006,1915.832764 2336.747314,1916.973389 2335.036377,1918.637695 
	C2331.702148,1921.881226 2327.830566,1924.663452 2324.928223,1928.242065 
	C2317.836426,1936.985962 2314.684570,1946.561646 2318.885498,1957.947754 
	C2325.335693,1975.430054 2330.906006,1993.238037 2337.402832,2010.702148 
	C2376.399170,2115.529541 2415.544434,2220.301514 2454.684326,2325.075195 
	C2456.531494,2330.019287 2458.800293,2334.805664 2461.740234,2341.700928 
	C2464.753418,2336.366455 2467.263916,2332.836182 2468.875732,2328.934570 
	C2512.604248,2223.096436 2556.252686,2117.225342 2599.878906,2011.345093 
	C2605.458008,1997.804199 2610.928711,1984.216797 2616.273926,1970.582031 
	C2618.456543,1965.013550 2620.550537,1959.357788 2622.021484,1953.572998 
	C2625.411133,1940.244263 2621.635742,1930.162109 2610.407227,1922.338989 
	C2605.750732,1919.094604 2600.659668,1916.474609 2594.700195,1912.937988 
	C2611.302002,1910.476440 2807.441895,1909.808960 2833.413330,1911.871216 
	C2835.175293,1915.090088 2832.761719,1916.444214 2830.742920,1918.058105 
	C2810.431641,1934.296875 2806.819336,1945.210571 2815.573486,1970.197144 
	C2825.916748,1999.719360 2836.826172,2029.056152 2848.110596,2058.233398 
	C2882.452881,2147.029053 2917.087158,2235.711670 2951.635498,2324.427734 
	C2953.555420,2329.358398 2955.725586,2334.191162 2957.764893,2339.034912 
	C2965.687012,2338.217529 2965.010010,2331.343018 2966.646484,2327.028564 
	C2991.200439,2262.290039 3015.302246,2197.380127 3039.749756,2132.600830 
	C3061.142334,2075.916016 3082.832275,2019.342896 3104.407715,1962.726807 
	C3105.118164,1960.862671 3106.162842,1959.118896 3106.793701,1957.232788 
	C3111.547119,1943.024170 3108.665527,1932.963623 3096.713379,1923.708984 
	C3092.196777,1920.211792 3087.070312,1917.502563 3082.014648,1914.303101 
	C3083.646240,1912.789795 3084.432861,1911.405029 3085.289307,1911.360107 
	C3121.197510,1909.482178 3289.404053,1910.483521 3305.611572,1912.708740 
	C3303.996338,1914.397461 3303.058350,1916.026978 3301.653564,1916.749268 
	C3281.653809,1927.033081 3268.947266,1943.714478 3260.537354,1963.965210 
	C3248.537354,1992.861450 3236.474854,2021.741821 3225.110596,2050.890625 
	C3169.487061,2193.558350 3114.067627,2336.305908 3058.636475,2479.048340 
	C3053.094727,2493.319336 3047.473633,2507.593506 3042.837646,2522.167969 
	C3040.460449,2529.641357 3039.552002,2537.744873 3039.093018,2545.628418 
	C3038.303711,2559.190186 3045.286377,2568.359375 3057.382568,2573.775146 
	C3061.593506,2575.660645 3066.048340,2577.001221 3071.578369,2579.024902 
	C3072.052979,2583.749023 3072.559326,2588.788574 3073.068604,2593.856445 
	C3070.494873,2595.122559 3068.865723,2596.477051 3067.104736,2596.677979 
	C3063.149658,2597.129150 3059.129395,2597.103516 3055.135498,2597.104736 
	C2991.157959,2597.125732 2927.180420,2597.147705 2863.202881,2597.073975 
	C2857.365479,2597.067383 2851.528564,2596.409180 2845.088867,2596.016602 
	C2845.088867,2590.179688 2845.088867,2585.659912 2845.088867,2580.366699 
	C2848.522705,2578.845215 2852.060303,2577.227295 2855.637207,2575.701416 
	C2874.278076,2567.749023 2881.509766,2554.352295 2876.776367,2534.092773 
	C2874.061035,2522.471924 2870.299072,2511.008301 2866.011475,2499.857178 
	C2845.222168,2445.789062 2824.439941,2391.713135 2803.001709,2337.900635 
	C2775.649902,2269.244873 2747.728516,2200.815186 2719.850098,2132.370850 
	C2717.713867,2127.126709 2717.106201,2120.619141 2710.096924,2116.689453 
	C2707.644287,2122.383057 2705.267090,2127.590332 2703.135254,2132.896240 
	C2655.479004,2251.507324 2607.853760,2370.130859 2560.209961,2488.746826 
	C2555.494141,2500.487305 2550.682129,2512.188721 2545.945312,2523.920898 
	C2544.199707,2528.244629 2542.218506,2532.508057 2540.902344,2536.964111 
	C2535.424561,2555.509277 2540.299805,2565.810547 2558.199463,2573.750244 
	C2562.383057,2575.605957 2566.752441,2577.043457 2571.988525,2579.035645 
	C2572.268066,2584.182617 2572.545898,2589.293945 2572.825684,2594.445312 
	C2570.186279,2595.458008 2568.399414,2596.693359 2566.576172,2596.750244 
	C2557.256104,2597.041016 2547.926514,2597.104248 2538.600098,2597.108398 
	C2482.619629,2597.133545 2426.639404,2597.141846 2370.658936,2597.093018 
	C2364.078125,2597.087158 2357.498047,2596.697021 2350.821777,2596.482178 
	C2347.385742,2590.897461 2348.192383,2585.831787 2349.729980,2579.713623 
	C2353.255371,2577.937012 2357.437988,2576.045410 2361.411377,2573.785645 
	C2374.034424,2566.608398 2380.493652,2556.062012 2380.456055,2541.142822 
	C2380.430176,2530.865479 2377.890381,2521.331299 2374.436523,2511.977783 
	C2365.213135,2486.999023 2355.839600,2462.071777 2346.184082,2437.257080 
	C2296.694092,2310.065430 2247.188965,2182.879150 2197.467041,2055.778076 
	C2185.825928,2026.020752 2172.649170,1996.852783 2161.440186,1966.941162 
	C2153.076660,1944.622559 2139.871094,1927.426880 2118.365967,1916.861694 
	C2117.247070,1916.311890 2116.362793,1915.285156 2114.861084,1914.069092 
	C2117.877930,1908.836914 2123.006348,1911.000000 2127.008545,1910.990601 
	C2190.319336,1910.841064 2253.630371,1910.882446 2318.777832,1910.880371 
z"/>
<path fill="#03A5E9" opacity="1.000000" stroke="none" 
	d="
M1924.212646,2255.887207 
	C1965.445312,2337.424072 2006.045532,2417.613037 2046.730957,2497.759033 
	C2053.661377,2511.410645 2061.205811,2524.753174 2068.022705,2538.459473 
	C2077.055664,2556.621338 2090.647705,2569.474854 2109.841309,2576.299561 
	C2111.658936,2576.946045 2113.326416,2578.014160 2116.052002,2579.382568 
	C2116.290039,2584.220947 2116.541992,2589.340332 2116.795654,2594.495361 
	C2114.152100,2595.488037 2112.375000,2596.617188 2110.521729,2596.760010 
	C2105.882568,2597.118164 2101.208496,2597.107178 2096.548584,2597.108154 
	C2024.595337,2597.124756 1952.642212,2597.139648 1880.688965,2597.084717 
	C1874.170166,2597.079834 1867.651733,2596.590332 1861.292114,2596.332275 
	C1860.605957,2593.008545 1859.952637,2591.117920 1859.885010,2589.206299 
	C1859.792114,2586.581299 1860.142822,2583.940430 1860.350464,2580.538330 
	C1866.281372,2577.856934 1872.395630,2575.468994 1878.155151,2572.412354 
	C1891.549438,2565.304443 1895.919189,2555.869873 1892.625610,2541.030029 
	C1891.334595,2535.212402 1889.783813,2529.289307 1887.245850,2523.938721 
	C1870.991821,2489.668945 1854.439331,2455.540039 1837.928467,2421.392578 
	C1837.371216,2420.240234 1836.210938,2419.379639 1834.300781,2417.214111 
	C1809.578735,2415.350830 1783.719849,2416.616455 1757.907837,2416.394287 
	C1731.260620,2416.164795 1704.609619,2416.343262 1677.960327,2416.343262 
	C1651.977173,2416.343262 1625.994141,2416.343262 1600.010986,2416.343262 
	C1574.080078,2416.343262 1548.149292,2416.343018 1522.060913,2416.343018 
	C1503.470825,2453.654053 1485.307617,2489.940918 1467.370728,2526.339355 
	C1465.352173,2530.435303 1463.999512,2535.077637 1463.384277,2539.608643 
	C1460.727417,2559.175049 1467.095459,2569.429932 1485.730713,2576.459961 
	C1488.812866,2577.622314 1491.924438,2578.705811 1495.913086,2580.147949 
	C1495.913086,2585.285156 1495.913086,2590.220947 1495.913086,2595.904297 
	C1491.880127,2596.363525 1488.660522,2597.047607 1485.440552,2597.050537 
	C1413.575928,2597.111328 1341.711182,2597.096924 1268.491699,2597.096924 
	C1267.991821,2590.905762 1267.594604,2585.987549 1267.208618,2581.206787 
	C1270.415283,2579.296875 1272.565674,2577.683838 1274.964111,2576.641113 
	C1292.282471,2569.113281 1304.250488,2556.089355 1312.706177,2539.640625 
	C1322.748413,2520.105469 1332.749023,2500.540039 1342.284424,2480.754639 
	C1395.459717,2370.416992 1448.522339,2260.025146 1501.552856,2149.617676 
	C1528.645386,2093.211670 1555.634155,2036.755493 1582.538330,1980.259277 
	C1585.382324,1974.286987 1587.968506,1968.049927 1589.575562,1961.659424 
	C1593.076172,1947.737793 1589.467651,1935.293213 1579.869751,1924.680786 
	C1576.489136,1920.943115 1572.734985,1917.543213 1569.062744,1913.901001 
	C1571.064087,1912.536011 1572.035522,1911.293823 1573.008545,1911.292725 
	C1646.944092,1911.205200 1720.879761,1911.207886 1794.815308,1911.302734 
	C1795.755371,1911.303833 1796.693726,1912.577393 1797.677612,1913.289307 
	C1798.179443,1916.782715 1794.984863,1917.539185 1793.080200,1918.875244 
	C1778.157471,1929.343018 1776.633789,1943.955566 1780.895020,1959.810425 
	C1782.949707,1967.455200 1786.531128,1974.754272 1789.956787,1981.955200 
	C1805.972046,2015.617920 1821.909058,2049.322021 1838.367676,2082.768555 
	C1866.587891,2140.115967 1895.175659,2197.282471 1924.212646,2255.887207 
M1793.155518,2313.012939 
	C1784.233032,2293.681885 1775.343994,2274.335205 1766.378906,2255.023926 
	C1757.415161,2235.716064 1748.370117,2216.445801 1739.370483,2197.154541 
	C1730.089355,2177.260010 1721.106812,2157.219971 1711.463379,2137.502686 
	C1702.201538,2118.565430 1694.948242,2098.578125 1682.699829,2079.235352 
	C1680.601196,2082.889648 1679.202148,2084.936035 1678.183228,2087.156494 
	C1644.057983,2161.532471 1609.951904,2235.917236 1575.944702,2310.347168 
	C1574.734131,2312.997070 1574.557495,2316.119385 1573.728149,2319.773682 
	C1578.440063,2320.000244 1581.735229,2320.295166 1585.030518,2320.296631 
	C1650.287109,2320.324951 1715.543823,2320.336426 1780.800415,2320.277100 
	C1784.752686,2320.273438 1788.728149,2319.801025 1792.633545,2319.176270 
	C1793.303467,2319.069336 1793.673706,2317.088379 1793.155518,2313.012939 
z"/>
<path fill="#03A5E9" opacity="1.000000" stroke="none" 
	d="
M775.147461,1933.482666 
	C773.611023,1938.722290 772.419495,1942.607910 772.414368,1946.495117 
	C772.297974,2034.462280 772.305298,2122.429688 772.302795,2210.396973 
	C772.300415,2292.379883 772.313538,2374.363037 772.319702,2456.345947 
	C772.320251,2463.579102 772.319763,2470.812500 772.319763,2479.212402 
	C777.328613,2479.948730 781.054260,2480.946289 784.786560,2480.971436 
	C807.447571,2481.125732 830.109985,2481.063965 852.771973,2481.064453 
	C964.748840,2481.066406 1076.725708,2481.064941 1188.702637,2481.064941 
	C1192.701782,2481.064941 1196.748413,2480.664795 1200.691895,2481.133301 
	C1217.858765,2483.172607 1228.408936,2474.489014 1235.592285,2460.107178 
	C1237.366455,2456.554932 1239.089844,2452.977295 1241.034302,2449.007324 
	C1245.084717,2449.007324 1248.971069,2449.007324 1252.326782,2449.007324 
	C1253.315308,2449.909424 1253.851318,2450.269775 1254.208984,2450.760010 
	C1254.595703,2451.290283 1255.069458,2451.941162 1255.071899,2452.541260 
	C1255.303833,2508.512207 1255.509277,2564.483154 1255.649780,2620.454346 
	C1255.657959,2623.723145 1255.120239,2626.993408 1254.756470,2631.188477 
	C1249.814819,2631.188477 1245.417969,2631.188477 1241.024536,2631.188477 
	C1236.670410,2623.366211 1232.595459,2615.755127 1228.242188,2608.306641 
	C1223.863892,2600.814941 1217.336182,2596.895264 1208.456055,2597.126953 
	C1203.127808,2597.265869 1197.792480,2597.124023 1192.460327,2597.124023 
	C998.500366,2597.122314 804.540466,2597.136719 610.580505,2597.071777 
	C602.725586,2597.069336 594.700989,2598.141357 586.134399,2595.450684 
	C586.134399,2589.922852 586.134399,2584.911865 586.134399,2580.259766 
	C612.830994,2566.376465 614.560242,2563.904785 617.246521,2534.130615 
	C618.082336,2524.865723 618.823975,2515.551025 618.829956,2506.258789 
	C618.927063,2355.623291 619.014832,2204.987305 618.814941,2054.352051 
	C618.766296,2017.733154 617.481873,1981.116821 617.215942,1944.495972 
	C617.156006,1936.231812 613.974792,1930.599731 607.557495,1926.076172 
	C602.671448,1922.631958 597.962524,1918.936768 591.641846,1914.205811 
	C594.787720,1912.789917 596.779236,1911.113037 598.774231,1911.108887 
	C663.425842,1910.975342 728.077759,1910.996704 792.729614,1911.053345 
	C793.966125,1911.054443 795.202026,1911.754517 797.007812,1912.300781 
	C795.734741,1918.305298 789.581360,1919.053955 786.114319,1922.475952 
	C782.805420,1925.741821 779.405151,1928.915161 775.147461,1933.482666 
z"/>
<path fill="#04A5E9" opacity="1.000000" stroke="none" 
	d="
M2640.333496,1620.779541 
	C2640.490234,1660.679810 2640.631592,1698.667114 2640.882324,1736.653687 
	C2640.889893,1737.822876 2642.035645,1738.984497 2643.238525,1741.262451 
	C2647.769043,1741.606812 2652.957031,1742.341797 2658.145264,1742.345093 
	C2762.130127,1742.412476 2866.115967,1742.194702 2970.098633,1742.679932 
	C2981.567139,1742.733398 2989.057861,1738.871826 2995.195312,1730.043213 
	C2997.846191,1726.230103 3000.741943,1722.411499 3004.235596,1719.424683 
	C3006.383301,1717.588501 3009.871826,1717.320801 3012.420898,1716.462524 
	C3013.864990,1718.665161 3015.135254,1719.699585 3015.137695,1720.736572 
	C3015.236084,1766.665894 3015.222900,1812.595337 3015.222900,1858.073364 
	C3009.852051,1862.023560 3005.822998,1860.956421 3002.774414,1856.367798 
	C2997.625000,1848.616211 2992.723389,1840.699585 2987.772461,1832.937988 
	C2979.635254,1829.609009 2971.558105,1831.024048 2963.709961,1831.019165 
	C2817.064453,1830.926392 2670.419189,1830.954956 2523.773682,1830.939575 
	C2516.525146,1830.938843 2509.276611,1830.770752 2501.934082,1830.679443 
	C2499.123535,1822.896118 2497.444336,1816.624756 2506.004639,1813.025757 
	C2514.534180,1809.439575 2517.366699,1802.199829 2518.306152,1793.933960 
	C2519.056641,1787.331909 2519.558594,1780.654419 2519.497803,1774.016724 
	C2519.357666,1758.701660 2518.487305,1743.390381 2518.476074,1728.077271 
	C2518.385742,1604.095215 2518.425537,1480.113159 2518.425537,1356.131104 
	C2518.425537,1352.131714 2518.134766,1348.106689 2518.483643,1344.138062 
	C2519.236328,1335.576660 2516.995605,1328.433716 2510.177246,1322.778931 
	C2507.126465,1320.248779 2503.874756,1317.423706 2502.135254,1314.008545 
	C2500.544678,1310.886353 2500.870361,1306.787964 2500.364502,1303.209717 
	C2508.545410,1299.653198 2515.950439,1301.131104 2523.127441,1301.125854 
	C2664.440186,1301.022461 2805.753174,1301.048828 2947.065918,1301.048828 
	C2951.065430,1301.048828 2955.101562,1300.698120 2959.057129,1301.114868 
	C2970.361328,1302.305664 2979.894775,1299.265625 2987.863770,1290.877197 
	C2992.609863,1285.881226 2998.244141,1282.284546 3005.659180,1285.798462 
	C3008.359863,1300.815308 3008.553223,1391.513306 3005.743164,1410.044189 
	C3002.097168,1409.714844 2998.059814,1410.170166 2994.750244,1408.829102 
	C2991.175537,1407.380493 2987.907959,1404.614746 2985.164307,1401.785522 
	C2978.577148,1394.992798 2970.621338,1393.490234 2961.534912,1393.504517 
	C2859.550049,1393.665039 2757.564697,1393.598755 2655.579590,1393.646240 
	C2651.642822,1393.648193 2647.706055,1394.184448 2642.742920,1394.546753 
	C2641.904053,1398.543579 2640.485596,1402.212524 2640.464355,1405.889648 
	C2640.283203,1437.217285 2640.328369,1468.546509 2640.395020,1499.875122 
	C2640.401855,1503.062500 2640.995117,1506.248413 2641.184326,1508.125122 
	C2642.842529,1509.791870 2643.241699,1510.394531 2643.802734,1510.700562 
	C2644.361816,1511.005493 2645.078857,1511.108765 2645.733643,1511.135986 
	C2650.385986,1511.328247 2655.039795,1511.618896 2659.693359,1511.620972 
	C2727.657471,1511.651733 2795.621582,1511.642090 2864.692627,1511.642090 
	C2870.035400,1505.148682 2875.403809,1498.472168 2880.946533,1491.943726 
	C2884.450195,1487.817261 2884.566895,1487.916382 2894.864014,1487.805786 
	C2895.338379,1488.247681 2895.895020,1488.630615 2896.263916,1489.147705 
	C2896.644043,1489.680420 2897.081543,1490.342407 2897.084229,1490.949829 
	C2897.274414,1530.927856 2897.424805,1570.906128 2897.572021,1610.884277 
	C2897.591309,1616.149292 2897.574707,1621.414673 2897.574707,1625.917114 
	C2891.309814,1631.005005 2886.532715,1629.748413 2882.615723,1625.303711 
	C2876.895752,1618.812622 2871.611572,1611.937256 2866.296631,1605.415771 
	C2848.594238,1602.963257 2658.599365,1603.134399 2641.514893,1605.759888 
	C2641.139648,1609.925903 2640.737061,1614.396118 2640.333496,1620.779541 
z"/>
<path fill="#05A5E9" opacity="1.000000" stroke="none" 
	d="
M3130.421143,1468.000000 
	C3130.254883,1423.371704 3130.099854,1380.743408 3129.854248,1338.115845 
	C3129.847412,1336.922363 3128.868896,1335.734375 3127.549072,1332.744873 
	C3108.627930,1326.851685 3088.443604,1320.564941 3068.588867,1314.380981 
	C3065.694092,1307.226929 3065.474365,1300.915527 3069.059570,1293.584961 
	C3074.244141,1293.404907 3079.431152,1293.069580 3084.617920,1293.067749 
	C3172.567139,1293.036255 3260.517090,1292.873657 3348.465576,1293.132202 
	C3383.513916,1293.235107 3417.317627,1299.685059 3448.756836,1316.052856 
	C3463.663818,1323.813843 3477.094727,1333.470947 3488.170410,1346.238770 
	C3513.669434,1375.632812 3519.408936,1410.299438 3514.110107,1447.372314 
	C3506.422363,1501.159546 3476.206787,1538.562378 3427.968994,1562.056152 
	C3419.024170,1566.412598 3409.589600,1569.764038 3399.327148,1574.015991 
	C3400.706543,1577.585693 3401.531494,1581.397827 3403.478027,1584.508179 
	C3441.629639,1645.480103 3479.858887,1706.403564 3518.192139,1767.261475 
	C3534.056641,1792.448242 3557.050049,1808.836548 3584.275879,1819.833252 
	C3587.961182,1821.321777 3591.788330,1822.607666 3595.201172,1824.588257 
	C3600.216553,1827.498901 3601.084717,1834.608765 3596.643311,1838.219727 
	C3593.120117,1841.084839 3588.966553,1843.538330 3584.693359,1845.026978 
	C3579.091553,1846.978516 3573.152588,1848.179077 3567.261963,1849.047363 
	C3536.038574,1853.649414 3504.798340,1853.437012 3473.872803,1847.116333 
	C3452.573975,1842.763184 3433.413330,1833.339478 3418.659424,1816.942505 
	C3408.445068,1805.590088 3398.408936,1793.888672 3389.805420,1781.309082 
	C3360.071777,1737.834473 3334.151855,1692.044922 3309.385498,1645.596558 
	C3304.060547,1635.609985 3298.444580,1625.769653 3293.406494,1615.641235 
	C3284.174805,1597.080933 3269.461670,1589.921143 3248.112061,1593.356934 
	C3247.293945,1596.936890 3245.725098,1600.621460 3245.716553,1604.309814 
	C3245.572998,1667.606079 3245.611328,1730.902954 3245.666016,1794.199585 
	C3245.668457,1796.791504 3246.227295,1799.383057 3246.591797,1802.536987 
	C3261.442383,1811.934082 3278.954834,1814.504395 3294.435791,1821.989502 
	C3297.074707,1828.545532 3297.372803,1834.866577 3293.991699,1841.967407 
	C3288.970947,1842.529663 3283.759033,1843.456543 3278.520508,1843.645996 
	C3233.151611,1845.287109 3085.161377,1844.164795 3069.076660,1842.167236 
	C3066.587891,1832.919800 3066.561035,1832.920288 3068.754395,1822.048096 
	C3087.729004,1816.129028 3107.306152,1810.021851 3126.286133,1804.101196 
	C3130.712402,1796.377808 3128.965820,1788.887573 3128.978760,1781.731812 
	C3129.117188,1705.109619 3128.949219,1628.486694 3129.127441,1551.864624 
	C3129.190918,1524.575684 3129.968262,1497.288330 3130.421143,1468.000000 
M3349.576904,1532.055664 
	C3367.663574,1518.973511 3378.420654,1500.989868 3383.472656,1479.637695 
	C3389.826904,1452.779907 3389.883301,1425.689087 3384.728516,1398.578857 
	C3380.206299,1374.794312 3366.612061,1357.756470 3345.941406,1345.792480 
	C3324.371582,1333.308105 3276.875977,1325.971191 3245.781494,1334.849854 
	C3244.358643,1352.073730 3245.240723,1369.902222 3245.096191,1387.678467 
	C3244.950195,1405.624512 3245.063965,1423.572754 3245.063965,1441.520020 
	C3245.063965,1460.131958 3244.735107,1478.751465 3245.158936,1497.353760 
	C3245.563232,1515.096924 3243.263184,1532.983521 3246.568115,1550.350464 
	C3278.793457,1557.395874 3315.843750,1551.135498 3349.576904,1532.055664 
z"/>
<path fill="#04A5E9" opacity="1.000000" stroke="none" 
	d="
M895.997925,1511.643311 
	C923.285950,1511.643311 948.574646,1511.643311 973.641602,1511.643311 
	C979.786072,1504.296631 985.214905,1497.585693 990.892029,1491.091797 
	C994.939514,1486.462158 999.814331,1485.820679 1005.075500,1489.074829 
	C1007.410461,1503.939941 1007.774841,1606.622925 1005.566101,1626.556763 
	C1000.462952,1630.159790 995.526001,1629.728638 991.438782,1625.102905 
	C985.715393,1618.625122 980.366028,1611.816895 973.880554,1603.968750 
	C956.117065,1603.887939 937.552307,1603.770142 918.987488,1603.728149 
	C900.330078,1603.685791 881.672607,1603.718994 863.015137,1603.718994 
	C844.357666,1603.718994 825.696777,1603.495361 807.043701,1603.782104 
	C788.556519,1604.066284 769.987671,1602.468262 750.721313,1605.063110 
	C750.139832,1609.498291 749.205139,1613.332520 749.198853,1617.168335 
	C749.101074,1677.138672 749.233582,1737.109497 748.994568,1797.078979 
	C748.960144,1805.728149 750.803833,1812.694092 758.222412,1817.804199 
	C760.916260,1819.659790 763.081604,1822.355225 765.265991,1824.861084 
	C768.700378,1828.801025 768.874512,1833.235474 766.715088,1837.859375 
	C749.568909,1840.584351 624.971436,1840.402222 609.448242,1837.570557 
	C605.386902,1822.194946 621.922058,1818.834106 627.669006,1805.874390 
	C627.669006,1801.984863 627.668945,1795.366577 627.668945,1788.748413 
	C627.668945,1642.820435 627.669006,1496.892456 627.668945,1350.964478 
	C627.668945,1348.965454 627.476318,1346.944580 627.700562,1344.971069 
	C628.755859,1335.683105 625.981140,1328.104126 618.538025,1322.130981 
	C615.457886,1319.659424 612.498657,1316.692993 610.485535,1313.348999 
	C608.971375,1310.833740 609.053467,1307.357544 608.147156,1302.961792 
	C612.391846,1302.188965 615.426575,1301.306519 618.498169,1301.150269 
	C623.815552,1300.879761 629.155823,1301.051514 634.486450,1301.051514 
	C776.416443,1301.049927 918.346375,1301.050415 1060.276367,1301.049683 
	C1064.940674,1301.049683 1069.621460,1300.790527 1074.265625,1301.094604 
	C1081.368896,1301.559448 1087.236084,1299.296265 1092.360474,1294.421143 
	C1095.245850,1291.676147 1098.233154,1288.748169 1101.726562,1287.016357 
	C1105.011719,1285.387573 1109.022339,1285.222046 1113.972168,1284.136963 
	C1117.520996,1305.674316 1115.189209,1326.154663 1115.613770,1346.491577 
	C1116.043335,1367.062012 1115.708496,1387.648438 1115.708496,1409.706055 
	C1110.675903,1409.457031 1107.064697,1409.446655 1103.506470,1409.007202 
	C1102.331665,1408.862061 1101.068359,1407.804810 1100.227417,1406.833862 
	C1089.016846,1393.892456 1074.165405,1392.973877 1058.424438,1393.014771 
	C961.139771,1393.267456 863.854187,1393.128052 766.568848,1393.166870 
	C761.952393,1393.168701 757.336121,1393.625854 751.740173,1393.922974 
	C750.839966,1397.832153 749.274902,1401.520264 749.251648,1405.218140 
	C749.054321,1436.534790 749.109314,1467.853149 749.181091,1499.170776 
	C749.188477,1502.392212 749.800110,1505.612427 750.261230,1510.095215 
	C755.929749,1510.649780 760.995056,1511.561890 766.062805,1511.575684 
	C808.707825,1511.691406 851.353333,1511.642578 895.997925,1511.643311 
z"/>
<path fill="#0AA7EA" opacity="1.000000" stroke="none" 
	d="
M1457.042480,1395.240967 
	C1454.519531,1360.929321 1452.068604,1328.456909 1449.508301,1294.537109 
	C1455.369263,1293.966797 1460.451294,1293.053711 1465.535400,1293.042480 
	C1514.863770,1292.934082 1564.192383,1292.976562 1613.520996,1292.976562 
	C1708.845215,1292.976318 1804.169312,1292.976562 1899.493530,1292.976562 
	C1906.733276,1292.976562 1913.973022,1292.976562 1922.237793,1292.976562 
	C1925.866943,1310.121460 1921.539795,1325.667847 1920.455200,1341.247437 
	C1919.344971,1357.194824 1917.955200,1373.122681 1916.727539,1389.062256 
	C1915.503296,1404.955811 1914.328247,1420.853271 1913.169312,1436.246704 
	C1897.547974,1441.443359 1895.355835,1440.945801 1889.395630,1430.265015 
	C1875.210571,1404.844849 1868.204590,1377.205933 1864.543335,1348.566040 
	C1864.121948,1345.268799 1863.726685,1341.967163 1863.219849,1338.682861 
	C1863.128540,1338.091309 1862.550781,1337.574829 1861.397827,1335.775024 
	C1860.071411,1335.366333 1857.663452,1333.987793 1855.249023,1333.976196 
	C1821.255249,1333.815308 1787.260498,1333.807861 1753.266235,1333.888062 
	C1750.769287,1333.893921 1748.274536,1334.861084 1745.350464,1335.470581 
	C1744.789917,1338.500000 1743.909058,1341.041870 1743.907959,1343.583984 
	C1743.842407,1494.853638 1743.849365,1646.123291 1743.849365,1798.230103 
	C1748.508057,1800.217651 1752.533569,1802.296875 1756.784790,1803.685547 
	C1773.875366,1809.268188 1791.069092,1814.534790 1808.157837,1820.122803 
	C1819.075073,1823.692993 1819.149658,1824.102783 1817.006714,1838.564941 
	C1814.049316,1838.944336 1810.853149,1839.631592 1807.639648,1839.725464 
	C1746.523193,1841.509644 1575.407227,1840.427979 1556.855347,1838.068604 
	C1556.565063,1833.910889 1556.259521,1829.534790 1555.908081,1824.502563 
	C1579.436646,1813.839844 1604.648926,1809.564941 1627.621460,1799.365356 
	C1632.082031,1792.480347 1630.232788,1784.936890 1630.243164,1777.785034 
	C1630.374634,1686.460693 1630.330200,1595.136108 1630.330078,1503.811523 
	C1630.330078,1455.149536 1630.378052,1406.487427 1630.276855,1357.825684 
	C1630.261963,1350.657593 1631.336914,1343.278442 1627.999756,1335.150635 
	C1615.622437,1332.495239 1603.020508,1333.977051 1590.571777,1333.753540 
	C1577.244019,1333.514160 1563.906616,1333.551147 1550.577271,1333.742432 
	C1538.050659,1333.922363 1525.438721,1332.836914 1513.881836,1334.467407 
	C1508.310425,1341.277344 1509.131958,1348.237671 1508.264038,1354.674683 
	C1505.309082,1376.592285 1499.785645,1397.800415 1490.705444,1417.963989 
	C1487.459961,1425.170898 1483.097412,1431.874756 1479.156006,1438.968018 
	C1473.191284,1438.968018 1468.023560,1438.968018 1462.844849,1438.968018 
	C1461.872192,1436.520752 1460.701050,1434.755615 1460.505249,1432.888306 
	C1459.255493,1420.964844 1458.220337,1409.018677 1457.042480,1395.240967 
M1668.414185,1574.000000 
	C1668.414185,1641.191406 1668.403687,1708.382812 1668.431885,1775.574219 
	C1668.434448,1781.553589 1668.377563,1787.566895 1669.018921,1793.491821 
	C1669.211670,1795.271851 1671.676880,1796.805908 1673.860107,1799.330322 
	C1677.335449,1779.492920 1678.788208,1456.950195 1676.127441,1348.911255 
	C1676.034790,1345.152710 1675.203369,1341.412231 1674.551270,1336.393433 
	C1671.986084,1338.393188 1669.514282,1339.360718 1669.375610,1340.591064 
	C1668.709595,1346.504150 1668.452271,1352.488037 1668.447876,1358.447021 
	C1668.395630,1428.964722 1668.414673,1499.482300 1668.414185,1574.000000 
M1723.569336,1761.694092 
	C1724.344604,1773.186035 1721.843384,1784.917847 1725.724121,1798.575073 
	C1728.663696,1779.304077 1728.598633,1355.069946 1726.011963,1339.120605 
	C1725.294922,1340.060181 1724.005371,1340.960815 1724.004028,1341.863403 
	C1723.798218,1480.503540 1723.685303,1619.143677 1723.569336,1761.694092 
M1652.428345,1761.693237 
	C1652.428223,1687.141724 1652.428223,1612.590210 1652.428223,1538.038696 
	C1652.428223,1476.799927 1652.476807,1415.561035 1652.340088,1354.322632 
	C1652.328613,1349.153687 1653.886353,1343.457642 1649.723999,1337.491455 
	C1647.495850,1355.057251 1646.128296,1744.177124 1648.024048,1789.908081 
	C1648.124268,1792.324463 1648.986206,1794.709229 1650.243164,1800.654541 
	C1653.604858,1786.670898 1651.931641,1776.043213 1652.428345,1761.693237 
M1696.085327,1359.060425 
	C1696.218872,1504.083374 1696.351196,1649.106201 1696.533203,1794.129150 
	C1696.533813,1794.674194 1697.184326,1795.289429 1697.661987,1795.730591 
	C1697.871948,1795.924561 1698.410156,1795.763184 1700.039307,1795.763184 
	C1700.168945,1789.281250 1700.409546,1782.746826 1700.413086,1776.212402 
	C1700.443237,1720.327515 1700.430298,1664.442505 1700.430298,1608.557617 
	C1700.430298,1524.730225 1700.498657,1440.902710 1700.279907,1357.075806 
	C1700.265015,1351.342041 1703.199097,1344.765869 1696.085571,1338.403076 
	C1696.085571,1344.978394 1696.085571,1350.190308 1696.085327,1359.060425 
z"/>
<path fill="#0CA8EA" opacity="1.000000" stroke="none" 
	d="
M2291.828125,1839.797119 
	C2217.875000,1839.797119 2145.894775,1839.797119 2074.413818,1839.797119 
	C2069.084229,1835.016113 2069.961426,1829.979736 2072.379639,1823.087524 
	C2095.304688,1815.529419 2119.213623,1807.646973 2142.264160,1800.047607 
	C2143.159180,1798.385864 2143.496338,1797.819580 2143.774902,1797.225708 
	C2144.055420,1796.627930 2144.493896,1796.003052 2144.494629,1795.389648 
	C2144.675293,1648.080322 2144.825684,1500.771118 2144.960938,1353.461792 
	C2144.964600,1349.465942 2144.861572,1345.466675 2144.670654,1341.475708 
	C2144.609131,1340.187866 2144.187012,1338.894653 2143.773438,1337.656128 
	C2143.572998,1337.055664 2143.011230,1336.575562 2142.614014,1336.039062 
	C2141.481201,1335.470947 2140.351318,1334.418823 2139.213135,1334.409424 
	C2105.234375,1334.128418 2071.254639,1333.918457 2037.275024,1333.808594 
	C2034.012085,1333.797974 2030.746826,1334.512451 2026.609863,1334.991333 
	C2025.793091,1338.943726 2024.708130,1342.649536 2024.298096,1346.428467 
	C2021.622070,1371.094360 2016.040771,1395.015503 2005.781128,1417.668335 
	C2002.521484,1424.865356 1998.322632,1431.637085 1994.387939,1438.909912 
	C1988.475952,1438.909912 1983.353516,1438.909912 1978.579590,1438.909912 
	C1977.526489,1437.288330 1976.308472,1436.259521 1976.202759,1435.126953 
	C1973.481567,1405.954956 1970.854126,1376.774048 1968.262939,1347.590088 
	C1967.320679,1336.977173 1966.463013,1326.355957 1965.661621,1315.731323 
	C1965.165039,1309.148193 1964.847168,1302.551392 1964.385620,1294.912109 
	C1969.792114,1294.172485 1974.228027,1293.060669 1978.669312,1293.038818 
	C2009.998291,1292.885010 2041.328491,1292.953979 2072.658203,1292.953857 
	C2186.645020,1292.953369 2300.632080,1292.953735 2414.618896,1292.953735 
	C2421.866211,1292.953735 2429.113525,1292.953735 2437.167969,1292.953735 
	C2437.975586,1296.455811 2439.174316,1298.908569 2438.987549,1301.250977 
	C2435.393555,1346.366333 2431.636719,1391.468750 2427.970215,1435.886963 
	C2422.039795,1441.517700 2416.227539,1439.835938 2409.749512,1438.384521 
	C2398.714600,1423.438477 2391.864990,1406.163208 2387.445557,1388.026001 
	C2383.232910,1370.734619 2380.255127,1353.142456 2376.816650,1336.091064 
	C2361.770752,1333.234131 2285.958496,1332.600098 2262.394043,1334.953125 
	C2257.937988,1339.197021 2259.098389,1344.769287 2259.081787,1349.931763 
	C2258.979980,1381.261230 2259.026611,1412.591064 2259.026367,1443.920776 
	C2259.025635,1554.574707 2259.026123,1665.228760 2259.026123,1775.882690 
	C2259.026123,1783.151489 2259.026123,1790.420288 2259.026123,1798.125000 
	C2282.767578,1809.371338 2307.900879,1813.660278 2332.266602,1823.784302 
	C2332.266602,1828.435547 2332.266602,1833.298706 2332.266602,1839.260864 
	C2318.902344,1840.315674 2306.329590,1839.552856 2291.828125,1839.797119 
M2191.572021,1733.988525 
	C2191.572266,1610.000610 2191.579102,1486.012573 2191.553711,1362.024658 
	C2191.552490,1355.366699 2191.575195,1348.680908 2190.947021,1342.068970 
	C2190.775146,1340.258057 2188.277588,1338.668213 2184.376709,1334.055176 
	C2184.140137,1345.038940 2183.850586,1352.260376 2183.849121,1359.481934 
	C2183.822266,1498.135132 2183.824707,1636.788330 2183.843506,1775.441528 
	C2183.844238,1781.435303 2183.953125,1787.433472 2184.213623,1793.420776 
	C2184.344482,1796.424805 2185.829102,1798.265503 2189.263428,1797.358276 
	C2189.858398,1796.250610 2191.001953,1795.105347 2191.018799,1793.943970 
	C2191.287842,1775.290039 2191.413330,1756.634033 2191.572021,1733.988525 
M2236.086426,1394.029907 
	C2236.086426,1519.293701 2236.080078,1644.557617 2236.103760,1769.821411 
	C2236.104980,1776.477051 2236.222168,1783.139648 2236.561523,1789.785034 
	C2236.715332,1792.795898 2238.480957,1794.467896 2243.209961,1793.131348 
	C2243.432129,1787.111450 2243.881104,1780.583130 2243.883057,1774.054810 
	C2243.923584,1635.465088 2243.918213,1496.875244 2243.896729,1358.285522 
	C2243.895996,1352.962280 2243.798584,1347.629028 2243.450195,1342.319824 
	C2243.251953,1339.301025 2241.509033,1337.650024 2236.328369,1339.137451 
	C2235.852783,1355.650391 2236.185059,1372.859741 2236.086426,1394.029907 
M2211.947510,1438.000000 
	C2212.040771,1556.450439 2212.129150,1674.900757 2212.302734,1793.351074 
	C2212.304443,1794.450562 2213.445312,1795.548462 2214.056396,1796.645996 
	C2216.373047,1783.467041 2217.498291,1535.566406 2216.014893,1353.943970 
	C2215.973145,1348.818237 2215.375488,1343.696899 2214.911621,1336.672852 
	C2213.372559,1339.824707 2212.303711,1340.997192 2212.296631,1342.176025 
	C2212.112793,1372.783569 2212.039795,1403.391846 2211.947510,1438.000000 
M2163.593750,1682.000000 
	C2163.713135,1719.257812 2163.815918,1756.515625 2164.033936,1793.772827 
	C2164.040283,1794.851685 2165.264404,1795.923584 2167.310303,1799.275513 
	C2167.607666,1790.567993 2168.018799,1784.074463 2168.022705,1777.580811 
	C2168.067871,1702.388428 2168.051758,1627.196167 2168.051758,1552.003784 
	C2168.051758,1486.127319 2168.132568,1420.250732 2167.891846,1354.375122 
	C2167.873291,1349.308716 2170.593506,1343.334595 2165.301514,1338.867188 
	C2164.769287,1340.229370 2163.887451,1341.433350 2163.885986,1342.638428 
	C2163.744873,1454.425537 2163.671143,1566.212769 2163.593750,1682.000000 
z"/>
<path fill="#0DA8EA" opacity="1.000000" stroke="none" 
	d="
M776.676453,2688.417725 
	C851.318298,2702.320068 925.918213,2716.452393 1000.614685,2730.055176 
	C1064.832886,2741.749756 1129.114502,2753.113525 1193.454346,2764.119141 
	C1255.162842,2774.674316 1316.889893,2785.186523 1378.777222,2794.612305 
	C1448.576416,2805.242676 1518.502808,2815.093750 1588.489014,2824.419434 
	C1639.978149,2831.281250 1691.566284,2837.645996 1743.264771,2842.630371 
	C1816.848755,2849.725098 1890.489868,2856.610840 1964.535767,2856.999023 
	C1981.843262,2857.089844 1999.164429,2858.543457 2016.449829,2858.131104 
	C2081.693359,2856.574951 2146.960205,2855.355713 2212.014404,2849.392822 
	C2263.086426,2844.711426 2314.251465,2840.925293 2365.236328,2835.447754 
	C2424.837891,2829.044434 2484.361572,2821.786865 2543.785889,2813.897217 
	C2615.098877,2804.428955 2686.350098,2794.424805 2757.483398,2783.693359 
	C2835.858398,2771.869629 2914.130615,2759.328857 2992.333496,2746.410400 
	C3066.598145,2734.142578 3140.735352,2721.096436 3214.890137,2708.172119 
	C3258.186768,2700.625732 3301.408203,2692.647705 3346.233398,2685.929688 
	C3347.806885,2688.472412 3347.810547,2689.949463 3347.814209,2691.426270 
	C3245.659180,2716.680664 3142.692139,2738.263672 3039.656982,2759.534180 
	C2934.666992,2781.208252 2829.306885,2800.982910 2723.590576,2818.707275 
	C2650.707031,2830.926758 2577.572754,2841.726807 2504.412598,2852.197021 
	C2446.413086,2860.497559 2388.302490,2868.239258 2330.059326,2874.552490 
	C2277.115234,2880.291504 2223.972656,2884.457764 2170.831543,2888.041748 
	C2123.020264,2891.266357 2075.105225,2894.182129 2027.212524,2894.609131 
	C1981.316406,2895.018555 1935.310669,2893.263184 1889.497437,2890.259521 
	C1833.035645,2886.557373 1776.675415,2881.054443 1720.363403,2875.410400 
	C1685.917725,2871.958008 1651.573120,2867.272217 1617.311157,2862.264160 
	C1559.989502,2853.885986 1502.614258,2845.707031 1445.544922,2835.810303 
	C1362.235107,2821.363281 1279.028564,2806.225342 1196.045044,2790.014404 
	C1077.104248,2766.779297 958.854797,2740.263672 841.012695,2711.965332 
	C820.302856,2706.991699 799.664978,2701.718750 777.673035,2694.291504 
	C776.460327,2690.805420 776.568359,2689.611572 776.676453,2688.417725 
z"/>
<path fill="#07A6E9" opacity="1.000000" stroke="none" 
	d="
M1338.957275,1360.449829 
	C1338.957153,1502.209473 1338.957520,1642.037842 1338.957886,1781.866089 
	C1338.957886,1785.861206 1339.322998,1789.896362 1338.889282,1793.843872 
	C1337.626953,1805.333008 1340.767090,1814.718750 1350.613403,1821.505249 
	C1352.727417,1822.962402 1355.187622,1825.091675 1355.754272,1827.346924 
	C1356.621338,1830.798462 1355.981812,1834.628418 1355.981812,1838.174316 
	C1333.665283,1840.592529 1212.927612,1840.273193 1197.383911,1837.804932 
	C1194.378906,1822.754272 1210.365601,1819.362305 1215.705322,1807.777100 
	C1215.705322,1650.147339 1215.705322,1491.077515 1215.705322,1332.624756 
	C1211.938110,1321.125732 1194.786621,1318.746460 1196.943115,1302.973511 
	C1200.014160,1302.237061 1202.445435,1301.150879 1204.879150,1301.145020 
	C1252.154053,1301.030396 1299.429443,1301.041382 1346.704590,1301.033325 
	C1348.035034,1301.033081 1349.372681,1301.032959 1350.694824,1301.158813 
	C1356.497681,1301.711182 1359.299316,1307.964966 1355.780640,1312.989502 
	C1353.897095,1315.678955 1351.469849,1318.007568 1349.157715,1320.371704 
	C1346.371582,1323.220703 1343.447266,1325.934692 1340.243164,1329.035767 
	C1337.886841,1338.628662 1339.386475,1348.632568 1338.957275,1360.449829 
z"/>
<path fill="#13AAEB" opacity="1.000000" stroke="none" 
	d="
M3328.921875,2500.104980 
	C3329.803955,2497.119873 3330.662109,2495.679688 3331.577393,2494.143311 
	C3332.671875,2495.033447 3333.546875,2495.378174 3333.652832,2495.883789 
	C3337.553711,2514.521484 3350.865234,2519.501953 3367.690674,2519.491699 
	C3400.954102,2519.471191 3434.217773,2519.492920 3467.481201,2519.455811 
	C3470.134033,2519.452881 3472.805420,2519.272949 3475.436279,2518.931152 
	C3499.223633,2515.840088 3509.441406,2505.134277 3511.508545,2481.386963 
	C3512.451416,2470.555664 3510.642578,2459.981201 3506.965576,2450.014404 
	C3502.096191,2436.814941 3491.847412,2428.705811 3478.889893,2423.402832 
	C3473.241943,2421.091309 3465.960938,2421.890869 3461.410889,2416.164795 
	C3463.085938,2414.783203 3464.003418,2413.378662 3464.864014,2413.413086 
	C3481.382080,2414.066895 3497.893311,2414.890137 3514.101562,2415.663818 
	C3516.875244,2430.452148 3517.435303,2553.851807 3515.061279,2575.546875 
	C3514.399170,2575.481201 3513.196289,2575.533936 3513.152344,2575.333008 
	C3508.932861,2556.060059 3495.741943,2550.739258 3477.653564,2550.992432 
	C3441.736084,2551.494873 3405.806641,2551.135986 3369.882080,2551.153076 
	C3367.223633,2551.154297 3364.563721,2551.285156 3361.907227,2551.414062 
	C3347.887451,2552.093750 3337.518555,2557.411133 3334.618164,2572.559814 
	C3334.331299,2574.057373 3332.676270,2575.292969 3331.758545,2576.513916 
	C3330.497803,2575.951172 3329.460205,2575.708496 3329.457764,2575.455566 
	C3329.220459,2550.854004 3329.061768,2526.251953 3328.921875,2500.104980 
z"/>
<path fill="#13AAEB" opacity="1.000000" stroke="none" 
	d="
M3516.400879,2316.003906 
	C3516.418213,2344.647217 3516.406006,2371.292480 3516.345215,2397.937744 
	C3516.340576,2399.922607 3515.987793,2401.906738 3515.792236,2403.938721 
	C3510.500977,2404.706543 3511.598145,2399.991211 3510.583496,2397.599121 
	C3506.537598,2388.061035 3499.241455,2382.991211 3489.332520,2381.564453 
	C3484.089111,2380.809570 3478.735352,2380.555664 3473.430176,2380.541748 
	C3440.123047,2380.453369 3406.816162,2380.474121 3373.509033,2380.520264 
	C3368.855469,2380.526855 3364.163330,2380.555176 3359.556641,2381.122803 
	C3347.447266,2382.615723 3337.824463,2387.361084 3335.120361,2400.773438 
	C3334.778076,2402.470947 3333.253174,2403.929932 3332.244629,2405.549805 
	C3330.995850,2404.542969 3329.319580,2403.826172 3329.312988,2403.093994 
	C3329.084473,2378.453125 3328.993896,2353.810791 3328.966553,2329.168701 
	C3328.964600,2327.403809 3329.594482,2325.638672 3329.901855,2324.023438 
	C3334.497803,2323.030273 3334.589600,2326.474365 3335.081299,2328.703613 
	C3338.197266,2342.835449 3347.961182,2348.023926 3361.270508,2348.594971 
	C3365.260986,2348.766357 3369.258301,2348.853027 3373.252441,2348.855957 
	C3401.896484,2348.877197 3430.541016,2348.964111 3459.184326,2348.804932 
	C3467.158691,2348.760498 3475.242432,2348.644043 3483.075439,2347.347900 
	C3495.909912,2345.223877 3504.472900,2337.798340 3508.597656,2324.994629 
	C3514.005615,2308.207275 3512.022705,2292.044434 3505.302490,2276.337158 
	C3500.616943,2265.385986 3491.648193,2258.487549 3480.679443,2254.226807 
	C3474.634033,2251.878418 3468.493652,2249.775635 3462.201660,2247.491699 
	C3463.333984,2245.839355 3463.974854,2244.110840 3464.591553,2244.119385 
	C3481.071289,2244.348145 3497.653320,2242.920654 3514.986816,2245.886230 
	C3518.012939,2269.096191 3515.727539,2291.603760 3516.400879,2316.003906 
z"/>
<path fill="#0EA9EA" opacity="1.000000" stroke="none" 
	d="
M3511.814209,2096.114502 
	C3527.307617,2127.887207 3524.764160,2159.502441 3508.897949,2189.906738 
	C3496.331055,2213.988770 3474.108398,2226.218994 3448.145264,2230.871094 
	C3429.024414,2234.297363 3409.628174,2233.543701 3390.851562,2227.590332 
	C3353.486328,2215.742188 3332.424805,2189.971680 3327.787354,2149.811523 
	C3330.028809,2148.108643 3330.948975,2148.081299 3331.868896,2148.054199 
	C3346.208496,2177.918213 3371.628906,2191.494629 3402.938721,2196.459473 
	C3422.314697,2199.531982 3441.341064,2198.104248 3460.280273,2193.007568 
	C3504.997314,2180.973145 3518.846924,2139.610596 3508.662354,2108.037842 
	C3508.254395,2106.773682 3508.032715,2105.449463 3508.024414,2101.577148 
	C3509.487793,2098.039062 3510.651123,2097.076904 3511.814209,2096.114502 
z"/>
<path fill="#2CB3ED" opacity="1.000000" stroke="none" 
	d="
M3331.945312,2146.297363 
	C3330.948975,2148.081299 3330.028809,2148.108643 3327.724609,2148.158447 
	C3321.651611,2135.006592 3324.222656,2121.974609 3327.305664,2109.018311 
	C3328.686279,2103.216309 3330.176514,2097.349854 3332.490479,2091.882568 
	C3335.391846,2085.028076 3334.113037,2079.209717 3328.638428,2072.846436 
	C3331.690674,2071.431396 3333.799316,2069.838623 3336.095459,2069.492432 
	C3348.418701,2067.635010 3379.537598,2068.341309 3389.383545,2070.584473 
	C3388.111084,2072.232666 3387.332520,2074.237793 3385.927734,2074.885254 
	C3380.510986,2077.381836 3374.859619,2079.363281 3369.359619,2081.687988 
	C3360.705811,2085.345947 3353.132812,2090.513916 3346.340332,2097.114502 
	C3336.245117,2106.924316 3330.539062,2118.299316 3331.425781,2132.599365 
	C3331.672607,2136.576904 3331.825439,2140.560059 3331.945312,2146.297363 
z"/>
<path fill="#40BAEE" opacity="1.000000" stroke="none" 
	d="
M775.560425,2687.717285 
	C776.568359,2689.611572 776.460327,2690.805420 776.245728,2693.793945 
	C754.518799,2690.437012 732.898376,2685.285645 709.685364,2678.678223 
	C708.012268,2676.450928 707.931702,2675.679932 707.851196,2674.908936 
	C730.048950,2678.944824 752.246704,2682.980713 775.560425,2687.717285 
z"/>
<path fill="#45BCEE" opacity="1.000000" stroke="none" 
	d="
M3511.662354,2094.752686 
	C3510.651123,2097.076904 3509.487793,2098.039062 3507.738770,2099.998535 
	C3497.417969,2086.096680 3484.428223,2075.842773 3466.615723,2072.299561 
	C3464.983643,2071.974854 3463.569824,2070.553711 3461.760986,2069.464844 
	C3476.326172,2062.617188 3496.302734,2072.439209 3511.662354,2094.752686 
z"/>
<path fill="#45BCEE" opacity="1.000000" stroke="none" 
	d="
M3349.437256,2691.555176 
	C3347.810547,2689.949463 3347.806885,2688.472412 3347.798340,2685.888184 
	C3365.551025,2681.465332 3383.308838,2678.150146 3402.467773,2675.767334 
	C3403.744385,2677.584229 3403.619873,2678.468506 3403.495361,2679.352783 
	C3386.017090,2683.463379 3368.538574,2687.573975 3349.437256,2691.555176 
z"/>
<path fill="#90D7F6" opacity="1.000000" stroke="none" 
	d="
M706.853088,2673.906494 
	C707.931702,2675.679932 708.012268,2676.450928 708.197510,2678.379639 
	C696.961731,2676.886963 685.601807,2674.313965 674.303284,2671.495361 
	C672.759766,2671.110596 671.522095,2669.499756 668.156128,2666.954102 
	C682.788025,2666.437744 694.294983,2669.856201 706.853088,2673.906494 
z"/>
<path fill="#A0DDF7" opacity="1.000000" stroke="none" 
	d="
M3405.047852,2679.433105 
	C3403.619873,2678.468506 3403.744385,2677.584229 3404.216309,2675.387207 
	C3422.953613,2667.857910 3422.953613,2667.857910 3439.879395,2670.256104 
	C3426.620850,2673.944336 3416.610596,2676.728760 3405.047852,2679.433105 
z"/>
<path fill="#FBFEFF" opacity="1.000000" stroke="none" 
	d="
M1793.668945,2314.493164 
	C1793.673706,2317.088379 1793.303467,2319.069336 1792.633545,2319.176270 
	C1788.728149,2319.801025 1784.752686,2320.273438 1780.800415,2320.277100 
	C1715.543823,2320.336426 1650.287109,2320.324951 1585.030518,2320.296631 
	C1581.735229,2320.295166 1578.440063,2320.000244 1573.728149,2319.773682 
	C1574.557495,2316.119385 1574.734131,2312.997070 1575.944702,2310.347168 
	C1609.951904,2235.917236 1644.057983,2161.532471 1678.183228,2087.156494 
	C1679.202148,2084.936035 1680.601196,2082.889648 1682.699829,2079.235352 
	C1694.948242,2098.578125 1702.201538,2118.565430 1711.463379,2137.502686 
	C1721.106812,2157.219971 1730.089355,2177.260010 1739.370483,2197.154541 
	C1748.370117,2216.445801 1757.415161,2235.716064 1766.378906,2255.023926 
	C1775.343994,2274.335205 1784.233032,2293.681885 1793.668945,2314.493164 
z"/>
<path fill="#FAFDFF" opacity="1.000000" stroke="none" 
	d="
M3348.363281,1532.890137 
	C3315.843750,1551.135498 3278.793457,1557.395874 3246.568115,1550.350464 
	C3243.263184,1532.983521 3245.563232,1515.096924 3245.158936,1497.353760 
	C3244.735107,1478.751465 3245.063965,1460.131958 3245.063965,1441.520020 
	C3245.063965,1423.572754 3244.950195,1405.624512 3245.096191,1387.678467 
	C3245.240723,1369.902222 3244.358643,1352.073730 3245.781494,1334.849854 
	C3276.875977,1325.971191 3324.371582,1333.308105 3345.941406,1345.792480 
	C3366.612061,1357.756470 3380.206299,1374.794312 3384.728516,1398.578857 
	C3389.883301,1425.689087 3389.826904,1452.779907 3383.472656,1479.637695 
	C3378.420654,1500.989868 3367.663574,1518.973511 3348.363281,1532.890137 
z"/>
<path fill="#81D2F4" opacity="1.000000" stroke="none" 
	d="
M1668.414551,1572.000000 
	C1668.414673,1499.482300 1668.395630,1428.964722 1668.447876,1358.447021 
	C1668.452271,1352.488037 1668.709595,1346.504150 1669.375610,1340.591064 
	C1669.514282,1339.360718 1671.986084,1338.393188 1674.551270,1336.393433 
	C1675.203369,1341.412231 1676.034790,1345.152710 1676.127441,1348.911255 
	C1678.788208,1456.950195 1677.335449,1779.492920 1673.860107,1799.330322 
	C1671.676880,1796.805908 1669.211670,1795.271851 1669.018921,1793.491821 
	C1668.377563,1787.566895 1668.434448,1781.553589 1668.431885,1775.574219 
	C1668.403687,1708.382812 1668.414185,1641.191406 1668.414551,1572.000000 
z"/>
<path fill="#90D7F6" opacity="1.000000" stroke="none" 
	d="
M1723.568970,1759.739014 
	C1723.685303,1619.143677 1723.798218,1480.503540 1724.004028,1341.863403 
	C1724.005371,1340.960815 1725.294922,1340.060181 1726.011963,1339.120605 
	C1728.598633,1355.069946 1728.663696,1779.304077 1725.724121,1798.575073 
	C1721.843384,1784.917847 1724.344604,1773.186035 1723.568970,1759.739014 
z"/>
<path fill="#C0E8FA" opacity="1.000000" stroke="none" 
	d="
M1652.428589,1763.629395 
	C1651.931641,1776.043213 1653.604858,1786.670898 1650.243164,1800.654541 
	C1648.986206,1794.709229 1648.124268,1792.324463 1648.024048,1789.908081 
	C1646.128296,1744.177124 1647.495850,1355.057251 1649.723999,1337.491455 
	C1653.886353,1343.457642 1652.328613,1349.153687 1652.340088,1354.322632 
	C1652.476807,1415.561035 1652.428223,1476.799927 1652.428223,1538.038696 
	C1652.428223,1612.590210 1652.428223,1687.141724 1652.428589,1763.629395 
z"/>
<path fill="#90D7F6" opacity="1.000000" stroke="none" 
	d="
M1696.085449,1357.231445 
	C1696.085571,1350.190308 1696.085571,1344.978394 1696.085571,1338.403076 
	C1703.199097,1344.765869 1700.265015,1351.342041 1700.279907,1357.075806 
	C1700.498657,1440.902710 1700.430298,1524.730225 1700.430298,1608.557617 
	C1700.430298,1664.442505 1700.443237,1720.327515 1700.413086,1776.212402 
	C1700.409546,1782.746826 1700.168945,1789.281250 1700.039307,1795.763184 
	C1698.410156,1795.763184 1697.871948,1795.924561 1697.661987,1795.730591 
	C1697.184326,1795.289429 1696.533813,1794.674194 1696.533203,1794.129150 
	C1696.351196,1649.106201 1696.218872,1504.083374 1696.085449,1357.231445 
z"/>
<path fill="#81D2F4" opacity="1.000000" stroke="none" 
	d="
M2191.571777,1735.983521 
	C2191.413330,1756.634033 2191.287842,1775.290039 2191.018799,1793.943970 
	C2191.001953,1795.105347 2189.858398,1796.250610 2189.263428,1797.358276 
	C2185.829102,1798.265503 2184.344482,1796.424805 2184.213623,1793.420776 
	C2183.953125,1787.433472 2183.844238,1781.435303 2183.843506,1775.441528 
	C2183.824707,1636.788330 2183.822266,1498.135132 2183.849121,1359.481934 
	C2183.850586,1352.260376 2184.140137,1345.038940 2184.376709,1334.055176 
	C2188.277588,1338.668213 2190.775146,1340.258057 2190.947021,1342.068970 
	C2191.575195,1348.680908 2191.552490,1355.366699 2191.553711,1362.024658 
	C2191.579102,1486.012573 2191.572266,1610.000610 2191.571777,1735.983521 
z"/>
<path fill="#61C6F2" opacity="1.000000" stroke="none" 
	d="
M2236.086426,1392.040649 
	C2236.185059,1372.859741 2235.852783,1355.650391 2236.328369,1339.137451 
	C2241.509033,1337.650024 2243.251953,1339.301025 2243.450195,1342.319824 
	C2243.798584,1347.629028 2243.895996,1352.962280 2243.896729,1358.285522 
	C2243.918213,1496.875244 2243.923584,1635.465088 2243.883057,1774.054810 
	C2243.881104,1780.583130 2243.432129,1787.111450 2243.209961,1793.131348 
	C2238.480957,1794.467896 2236.715332,1792.795898 2236.561523,1789.785034 
	C2236.222168,1783.139648 2236.104980,1776.477051 2236.103760,1769.821411 
	C2236.080078,1644.557617 2236.086426,1519.293701 2236.086426,1392.040649 
z"/>
<path fill="#A0DDF7" opacity="1.000000" stroke="none" 
	d="
M2211.947266,1436.000000 
	C2212.039795,1403.391846 2212.112793,1372.783569 2212.296631,1342.176025 
	C2212.303711,1340.997192 2213.372559,1339.824707 2214.911621,1336.672852 
	C2215.375488,1343.696899 2215.973145,1348.818237 2216.014893,1353.943970 
	C2217.498291,1535.566406 2216.373047,1783.467041 2214.055420,1796.646484 
	C2213.445312,1795.548462 2212.304443,1794.450562 2212.302734,1793.351074 
	C2212.129150,1674.900757 2212.040771,1556.450439 2211.947266,1436.000000 
z"/>
<path fill="#C0E8FA" opacity="1.000000" stroke="none" 
	d="
M2163.593262,1680.000000 
	C2163.671143,1566.212769 2163.744873,1454.425537 2163.885986,1342.638428 
	C2163.887451,1341.433350 2164.769287,1340.229370 2165.301514,1338.867188 
	C2170.593506,1343.334595 2167.873291,1349.308716 2167.891846,1354.375122 
	C2168.132568,1420.250732 2168.051758,1486.127319 2168.051758,1552.003784 
	C2168.051758,1627.196167 2168.067871,1702.388428 2168.022705,1777.580811 
	C2168.018799,1784.074463 2167.607666,1790.567993 2167.310303,1799.275513 
	C2165.264404,1795.923584 2164.040283,1794.851685 2164.033936,1793.772827 
	C2163.815918,1756.515625 2163.713135,1719.257812 2163.593262,1680.000000 
z"/>
</svg>