<svg xmlns="http://www.w3.org/2000/svg" id="aa8e37f6-9899-4529-9394-c926271b54dc" data-name="Layer 1" width="60" height="60" viewBox="0 0 60 60"><path d="M59.5063,7.3521C59.4706,7.3182,52.4229.5309,52.4229.5309A1.4325,1.4325,0,0,0,51.3545,0H22.981a1.5121,1.5121,0,0,0-1.503,1.5177V6.1783l-10,1.7311A1.4943,1.4943,0,0,0,10.276,9.6346l.5075,2.9883c-3.25,1.1046-6.5876,2.2433-9.8092,3.4119A1.5068,1.5068,0,0,0,.0852,17.944L8.0485,40.3185c.0051.0146.0155.0253.0214.0395l6.6426,18.6579A1.4852,1.4852,0,0,0,16.1033,60a1.4421,1.4421,0,0,0,.5-.09l8.9848-3.2621L45.99,49.2433l3.8976-.6747h8.61A1.5139,1.5139,0,0,0,60,47.0475V8.3522A1.2807,1.2807,0,0,0,59.5063,7.3521ZM57,6.9992H52.9341l-.1008,0c-.1946.0014-.65.0049-.766-.1155a.4973.4973,0,0,1-.0579-.2933L52,2ZM24.9933,54.9778,16.27,58.1449,9.4961,39.1172c-.0041-.0115-.0135-.0189-.018-.03L1.8341,17.6092c3.0352-1.0974,6.1784-2.1715,9.25-3.2155l3.02,17.78L17.58,52.65a1.4853,1.4853,0,0,0,1.7086,1.217L28.7,52.236l7.3547-1.2731Zm3.2881-4.5523L19.18,52,15.7662,31.922,12,9.7893l9.3843-1.6215,0,21.8917V47.0068a1.5064,1.5064,0,0,0,1.4969,1.5122H39.316ZM58,46.7543H23.1351V29.5584h0V2H49.8011l.0115,5.3324a2.11,2.11,0,0,0,.58,1.5541,2.6625,2.6625,0,0,0,1.9448.6326c.0445,0,.0868,0,.1264-.0006l5.5366,0Z" transform="translate(0)"></path><path d="M27.85,18h9.3a1.0133,1.0133,0,0,0,0-2h-9.3a1.0133,1.0133,0,0,0,0,2Z" transform="translate(0)"></path><path d="M27.85,24h9.3a1.0133,1.0133,0,0,0,0-2h-9.3a1.0133,1.0133,0,0,0,0,2Z" transform="translate(0)"></path><path d="M27.85,29a1.0133,1.0133,0,0,0,0,2h24.3a1.0133,1.0133,0,0,0,0-2Z" transform="translate(0)"></path><path d="M52.15,35H27.85a1.0133,1.0133,0,0,0,0,2h24.3a1.0133,1.0133,0,0,0,0-2Z" transform="translate(0)"></path></svg>