<svg xmlns="http://www.w3.org/2000/svg" id="a47c217d-04b1-4dfc-b35a-d9259dec4a79" data-name="eaaf2d7c-d339-4db1-bcc2-71589def0e45" width="49.85" height="49.85" viewBox="0 0 49.85 49.85"><path d="M49.85,14.5H49.7V8.15a4.0042,4.0042,0,0,0-4-4H38.85V1.5a1.5,1.5,0,0,0-3,0V4.15h-11V1.5a1.5,1.5,0,0,0-3,0V4.15h-11V1.5a1.5,1.5,0,1,0-3,0V4.15H4a4.0045,4.0045,0,0,0-4,4v37.7a4.0042,4.0042,0,0,0,4,4H45.7a4.0039,4.0039,0,0,0,4-4V16.5h.15ZM4,6.15H7.85V7.5a1.5,1.5,0,0,0,3,0V6.15h11V7.5a1.5,1.5,0,0,0,3,0V6.15h11V7.5a1.5,1.5,0,0,0,3,0V6.15H45.7a2.0024,2.0024,0,0,1,2,2V14.5H2V8.15A2.002,2.002,0,0,1,4,6.15Zm43.7,39.7a2.0027,2.0027,0,0,1-2,2H4a2.0024,2.0024,0,0,1-2-2V16.5H47.7Z" transform="translate(-0.0001)"></path><path d="M19.8613,40.4629,35.62,24.7056a.8.8,0,0,0-1.1308-1.1319L19.8613,38.2012l-6.3706-6.37a.8.8,0,0,0-1.171,1.09q.02.0209.04.04Z" transform="translate(-0.0001)"></path></svg>