<svg xmlns="http://www.w3.org/2000/svg" id="b55f4c0e-1aca-4674-82c4-5f6e4c069fc5" data-name="Layer 1" width="72" height="54" viewBox="0 0 72 54"><g id="bf2d3e2e-ded5-4fbc-8728-74913eaba643" data-name="Page-1"><g id="bd6835e9-e658-489b-a97e-edb0db4cac9e" data-name="Virtual-Assistant"><g id="b06d6723-c511-4369-a956-1c8b078d4ae2" data-name="Group-9-Copy"><g id="e2fd66a3-0030-4bc5-a9c3-2768e3c8c522" data-name="Shape"><path d="M55.2861,54c-.8554,0-1.122-.168-6.3173-3.4463-1.4678-.9258-3.3477-2.1123-5.77-3.6308H33.3765a7.8955,7.8955,0,0,1-5.2637-2.01,3.3125,3.3125,0,0,1-1.0083-1.6465l-8.1011,6.0586A3.3717,3.3717,0,0,1,13.6123,46.72l-.1152-5.3828H8.1021A8.0832,8.0832,0,0,1,0,33.292V8.0454A8.0833,8.0833,0,0,1,8.1021,0H51.8984A8.0832,8.0832,0,0,1,60,8.0454v4.4277A3.2836,3.2836,0,0,1,61.7021,12h2.379A7.9343,7.9343,0,0,1,72,19.9312v19.061a7.934,7.934,0,0,1-7.9189,7.9307H58.835l-.0967,3.8505a3.3325,3.3325,0,0,1-3.3067,3.2256C55.3809,54,55.333,54,55.2861,54ZM29.2612,41.6533a1.438,1.438,0,0,0-.17.3135,1.2881,1.2881,0,0,0,.3535,1.4541,5.8959,5.8959,0,0,0,3.9317,1.502H43.7754l.2432.1523c2.5419,1.5947,4.5,2.83,6.0175,3.7871C54.498,51.6777,55.0186,52,55.3271,52h.004l.1005-.001a1.3181,1.3181,0,0,0,1.3067-1.2773l.1474-5.7988h7.1954A5.9314,5.9314,0,0,0,70,38.9922V19.9312A5.9317,5.9317,0,0,0,64.0811,14h-2.379a1.31,1.31,0,0,0-1.3066,1.31V32.0117a9.0854,9.0854,0,0,1-.7353,3.59,8.109,8.109,0,0,1-7.7618,5.7353H29.6846ZM8.1021,2A6.0807,6.0807,0,0,0,2,8.0454V33.292a6.0806,6.0806,0,0,0,6.1021,6.0449h7.353l.1572,7.34a1.3251,1.3251,0,0,0,.7622,1.1787,1.3625,1.3625,0,0,0,1.4312-.1319l10.0683-7.53a3.2463,3.2463,0,0,1,.9824-.7344l.1631-.1221h.1211a3.3311,3.3311,0,0,1,1.1695-.21H51.2939a7.111,7.111,0,0,0,6.4815-4.209A5.96,5.96,0,0,0,58,33.292V8.0454A6.0806,6.0806,0,0,0,51.8984,2Z"></path></g><g id="b9f85abc-714f-4665-b97c-ac2e8ec33f08" data-name="Path-3"><path d="M46.5977,21.65H14a1.15,1.15,0,0,1,0-2.3H46.5977a1.15,1.15,0,1,1,0,2.3Z"></path></g><g id="b5bac4a6-46c4-49ca-bcb2-1d2c9a668a2c" data-name="Path-3-Copy-2"><path d="M46.5977,14.65H14a1.15,1.15,0,0,1,0-2.3H46.5977a1.15,1.15,0,1,1,0,2.3Z"></path></g><g id="e39aaeeb-a5c4-4c73-80cf-3ea3aa1af109" data-name="Path-3-Copy"><path d="M34.58,28.65H14a1.15,1.15,0,0,1,0-2.3H34.58a1.15,1.15,0,0,1,0,2.3Z"></path></g></g></g></g></svg>